<?xml version="1.0" encoding="UTF-8" standalone="no"?>
<svg width="117px" height="40px" viewBox="0 0 117 40" version="1.1" xmlns="http://www.w3.org/2000/svg" xmlns:xlink="http://www.w3.org/1999/xlink">
    <!-- Generator: Sketch 40.3 (33839) - http://www.bohemiancoding.com/sketch -->
    <title>Group Copy</title>
    <desc>Created with Sketch.</desc>
    <defs>
        <linearGradient x1="50%" y1="0%" x2="50%" y2="100%" id="linearGradient-1">
            <stop stop-color="#FBFF00" offset="0%"></stop>
            <stop stop-color="#99D22B" offset="100%"></stop>
        </linearGradient>
        <linearGradient x1="46.6321399%" y1="121.215264%" x2="53.34041%" y2="-20.6294352%" id="linearGradient-2">
            <stop stop-color="#0289CE" offset="0%"></stop>
            <stop stop-color="#009EFF" offset="100%"></stop>
        </linearGradient>
    </defs>
    <g id="Page-1" stroke="none" stroke-width="1" fill="none" fill-rule="evenodd">
        <g id="Desktop" transform="translate(-718.000000, -1578.000000)">
            <g id="Group-Copy" transform="translate(718.000000, 1578.000000)">
                <path d="M45.8987344,23.056092 C45.4051406,23.056092 44.9444531,23.2216092 44.5166719,23.52 C44.1217969,23.8510345 43.8585469,24.182069 43.7927344,24.5793103 C43.7269219,24.9765517 43.8256406,25.2749425 44.1217969,25.5066667 L44.4508594,25.7052874 C44.7799219,25.8372414 45.0431719,25.903908 45.2406094,25.903908 L47.5440469,25.903908 L50.8017656,25.903908 L51.2953594,23.0570115 L47.5440469,23.0570115 L45.8987344,23.0570115 L45.8987344,23.056092 Z" id="Shape" fill="#0195E9"></path>
                <path d="M113.521535,0.377011494 L9.24117188,0.377011494 C7.26679688,0.377011494 5.42404688,1.93287356 5.16079688,3.85287356 L0.488109375,36.228046 C0.191953125,38.1485057 1.57401563,39.7043678 3.54839063,39.7043678 L107.82784,39.7043678 C109.802215,39.7043678 111.645422,38.1485057 111.908672,36.228046 L116.581359,3.85287356 C116.877059,1.93287356 115.495453,0.377011494 113.521535,0.377011494 L113.521535,0.377011494 Z M29.7088594,16.2372414 L19.6724531,16.2372414 C17.8626094,16.2372414 16.3818281,17.1972414 15.1972031,19.0841379 C14.7694219,19.68 14.5061719,20.4413793 14.3416406,21.2689655 C14.3087344,21.4013793 14.3087344,21.5337931 14.2758281,21.6662069 L14.2758281,22.0970115 C14.1771094,23.7186207 14.7365156,24.9108046 15.8882344,25.6390805 C16.5463594,26.0358621 17.2044844,26.2349425 17.9284219,26.2349425 L23.5553906,26.2349425 L24.1147969,23.023908 L20.9557969,23.023908 L21.5481094,19.7135632 L29.0178281,19.7135632 L28.4255156,23.1563218 L27.2079844,30.108046 L22.8972656,30.108046 L16.6779844,30.108046 C13.9138594,30.108046 11.8736719,29.2804598 10.5574219,27.6910345 C9.20826563,26.0694253 8.78048438,23.9172414 9.27407813,21.1696552 C9.73476563,18.4882759 10.9193906,16.3034483 12.8279531,14.7144828 C14.7036094,13.1255172 17.0070469,12.297931 19.7053594,12.297931 L30.3998906,12.297931 L29.7088594,16.2372414 L29.7088594,16.2372414 Z M56.3300156,18.4882759 C56.3300156,18.8193103 56.2971094,19.2827586 56.1983906,19.8124138 L56.0996719,20.342069 L54.5201719,29.3131034 L47.5440469,29.3131034 L43.1017031,29.3131034 C42.3448594,29.3131034 41.6538281,29.1806897 41.0615156,28.8827586 C40.3046719,28.4855172 39.7781719,27.9222989 39.4491094,27.2275862 C39.1529531,26.531954 39.0871406,25.7048276 39.2187656,24.8105747 C39.2516719,24.6781609 39.2845781,24.5788506 39.2845781,24.4464368 C39.3832969,24.2809195 39.4162031,24.1485057 39.4162031,24.0496552 C39.8439844,22.7250575 40.5679219,21.6988506 41.6209219,20.9705747 C42.4764844,20.4082759 43.3978594,20.1103448 44.4179531,20.1103448 L47.5440469,20.1103448 L51.8218594,20.1103448 L51.9534844,19.2827586 C52.0192969,19.017931 52.0192969,18.7531034 51.9863906,18.5213793 C51.9534844,18.2896552 51.8218594,18.0248276 51.6244219,17.76 C51.4598906,17.4951724 51.1966406,17.3296552 50.9004844,17.1972414 C50.5714219,17.097931 50.1436406,17.0317241 49.5842344,16.9986207 L47.5440469,16.9986207 L41.1931406,16.9986207 C38.2315781,16.9986207 37.1127656,17.4951724 36.5862656,19.4482759 L34.8422344,29.3131034 L30.5315156,29.3131034 L33.2956406,13.5558621 L37.6063594,13.5558621 L37.2114844,15.7406897 L37.5076406,15.2441379 C38.1657656,14.3172414 38.9884219,13.9862069 40.1401406,13.6551724 C40.3375781,13.5889655 40.5679219,13.5558621 40.8640781,13.5227586 C41.1602344,13.5227586 41.3247656,13.4896552 41.3576719,13.4896552 L41.8512656,13.4896552 L41.8841719,13.4896552 L47.5440469,13.5558621 L49.0906406,13.5558621 L51.2624531,13.5558621 C51.4927969,13.5558621 51.8218594,13.5889655 52.2496406,13.6551724 C53.2039219,13.8206897 53.9278594,14.0193103 54.3885469,14.2841379 C54.8821406,14.5489655 55.2770156,14.9462069 55.6389844,15.4758621 C55.9680469,16.0055172 56.1983906,16.6675862 56.2971094,17.4951724 C56.3300156,17.8262069 56.3629219,18.1572414 56.3300156,18.4882759 L56.3300156,18.4882759 Z M67.6497656,11.1062069 C66.8271094,11.1062069 66.2347969,11.2055172 65.9386406,11.4372414 C65.6429414,11.6689655 65.4125977,12.0993103 65.3138789,12.7613793 L65.1493477,13.5558621 L69.7562227,13.5558621 L74.0673984,13.5558621 L71.3028164,29.3131034 L66.9920977,29.3131034 L69.1963594,16.7668966 L64.5899414,16.7668966 L62.3852227,29.3131034 L57.9428789,29.3131034 L60.1475977,16.7668966 L57.9762422,16.7668966 C57.9762422,16.6675862 57.9762422,16.5351724 57.9433359,16.4358621 C57.8446172,15.6082759 57.6471797,14.9462069 57.2852109,14.4165517 C57.0548672,14.0855172 56.8245234,13.7875862 56.5283672,13.5558621 L60.7074609,13.5558621 L61.0365234,11.6689655 C61.1023359,11.1393103 61.2668672,10.6758621 61.497668,10.2786207 C61.7280117,9.84827586 62.0899805,9.45103448 62.550668,9.02068966 C63.0438047,8.59034483 63.5373984,8.29241379 64.0643555,8.0937931 C64.5913125,7.89517241 65.2160742,7.76275862 65.972918,7.76275862 L70.7776875,7.76275862 L74.6930742,7.76275862 L75.0879492,7.76275862 L74.6930742,9.98068966 L74.2986563,12.1324138 L69.9874805,12.1324138 L70.185375,11.1062069 L67.6497656,11.1062069 L67.6497656,11.1062069 Z M87.6896719,29.3131034 L81.0426094,29.3131034 C78.6075469,29.3131034 76.7977031,28.617931 75.6126211,27.1944828 C75.2182031,26.6983908 74.8891406,26.1687356 74.6912461,25.605977 C74.2634648,24.4137931 74.1976523,23.023908 74.4609023,21.4349425 C74.5271719,21.0708046 74.5925273,20.7393103 74.6912461,20.4087356 C75.1848398,18.4887356 76.1720273,16.8997701 77.6199023,15.6749425 C79.2981211,14.2845977 81.3387656,13.5563218 83.7409219,13.5563218 L90.1576406,13.5563218 L90.4533398,13.5563218 L90.1576406,15.343908 L89.8614844,17.0321839 L83.7080156,17.0321839 C82.0956094,17.0321839 80.7793594,17.8928736 79.7259023,19.5811494 C79.3643906,20.1108046 79.1011406,20.7397701 78.9695156,21.5016092 C78.9695156,21.6009195 78.9366094,22.1301149 78.9032461,22.2294253 C78.8374336,23.685977 79.2981211,24.7457471 80.3515781,25.3742529 C80.9109844,25.7388506 81.5032969,25.903908 82.1614219,25.903908 L88.3144336,25.903908 L87.6896719,29.3131034 L87.6896719,29.3131034 Z M106.874016,19.8124138 L106.775297,20.342069 L105.195797,29.3131034 L98.2196719,29.3131034 L93.7773281,29.3131034 C93.0204844,29.3131034 92.3619023,29.1806897 91.7366836,28.8827586 C91.0127461,28.4855172 90.4533398,27.9222989 90.1576406,27.2275862 C89.8281211,26.531954 89.7623086,25.7048276 89.9272969,24.8105747 C89.9272969,24.6781609 89.9597461,24.5788506 89.9931094,24.4464368 C90.0589219,24.2809195 90.0918281,24.1485057 90.1242773,24.0496552 C90.1242773,24.016092 90.1242773,23.9829885 90.1576406,23.9167816 C90.5854219,22.6593103 91.2759961,21.6988506 92.3289961,20.9705747 C93.1850156,20.4082759 94.1063906,20.1103448 95.0935781,20.1103448 L98.2196719,20.1103448 L102.497484,20.1103448 L102.661559,19.2827586 C102.694465,19.017931 102.727828,18.7531034 102.661559,18.5213793 C102.629109,18.2896552 102.529934,18.0248276 102.332496,17.76 C102.135059,17.4951724 101.871809,17.3296552 101.575652,17.1972414 C101.279496,17.097931 100.851715,17.0317241 100.291852,17.0317241 L98.2192148,17.0317241 L92.3619023,17.0317241 L92.9871211,13.5558621 L98.2192148,13.5558621 L101.970527,13.5558621 C102.200871,13.5558621 102.529934,13.5889655 102.957258,13.6551724 C103.87909,13.8206897 104.603027,14.0193103 105.096621,14.2841379 C105.557309,14.5489655 105.98509,14.9462069 106.314152,15.4758621 C106.676121,16.0055172 106.873559,16.6675862 106.972277,17.4951724 C107.03809,17.8262069 107.03809,18.1572414 107.03809,18.4882759 C107.038547,18.8193103 106.973191,19.2827586 106.874016,19.8124138 L106.874016,19.8124138 Z" id="Shape" fill="url(#linearGradient-2)"></path>
                <path d="M95.2256602,23.52 C94.7974219,23.8510345 94.5675352,24.182069 94.4688164,24.5793103 C94.4030039,24.9765517 94.5346289,25.2749425 94.7978789,25.5066667 L95.1598477,25.7052874 C95.4560039,25.8372414 95.7192539,25.903908 95.9495977,25.903908 L98.2205859,25.903908 L101.478305,25.903908 L102.004805,23.0570115 L98.2205859,23.0570115 L96.6072656,23.0570115 C96.0812227,23.056092 95.6529844,23.2216092 95.2256602,23.52 Z" id="Shape" fill="#0195E9"></path>
            </g>
        </g>
    </g>
</svg>