<?xml version="1.0" encoding="UTF-8"?>
<svg width="239px" height="299px" viewBox="0 0 239 299" version="1.1" xmlns="http://www.w3.org/2000/svg" xmlns:xlink="http://www.w3.org/1999/xlink">
    <!-- Generator: Sketch 46.2 (44496) - http://www.bohemiancoding.com/sketch -->
    <title>0</title>
    <desc>Created with Sketch.</desc>
    <defs>
        <path d="M365.238305,407.44655 C365.238305,415.067237 365.492324,424.275429 366.000369,435.071402 C366.508415,445.867375 368.096034,456.282158 370.763275,466.316062 C373.430515,476.349966 377.685335,484.92311 383.527862,492.035752 C389.370388,499.148393 397.753018,502.70466 408.676003,502.70466 C419.85301,502.70466 428.426154,499.148393 434.395692,492.035752 C440.36523,484.92311 444.683555,476.349966 447.350795,466.316062 C450.018035,456.282158 451.605655,445.867375 452.113701,435.071402 C452.621746,424.275429 452.875765,415.067237 452.875765,407.44655 C452.875765,402.874138 452.812261,397.349223 452.685249,390.871639 C452.558238,384.394055 452.0502,377.726054 451.161119,370.867436 C450.272039,364.008818 449.001944,357.213807 447.350795,350.482201 C445.699646,343.750594 443.22296,337.717641 439.920663,332.38316 C436.618365,327.048679 432.42705,322.730354 427.346592,319.428057 C422.266134,316.125759 416.042667,314.474635 408.676003,314.474635 C401.309339,314.474635 395.149376,316.125759 390.195929,319.428057 C385.242483,322.730354 381.178177,327.048679 378.002891,332.38316 C374.827605,337.717641 372.350919,343.750594 370.572759,350.482201 C368.794598,357.213807 367.524503,364.008818 366.762434,370.867436 C366.000366,377.726054 365.555832,384.394055 365.428821,390.871639 C365.301809,397.349223 365.238305,402.874138 365.238305,407.44655 Z M311.131698,407.44655 C311.131698,381.536215 313.735394,359.754078 318.942863,342.099487 C324.150333,324.444896 331.199362,310.283332 340.090164,299.61437 C348.980965,288.945408 359.332243,281.324836 371.144307,276.752424 C382.956372,272.180012 395.466812,269.89384 408.676003,269.89384 C422.139216,269.89384 434.776666,272.180012 446.58873,276.752424 C458.400795,281.324836 468.815577,288.945408 477.83339,299.61437 C486.851203,310.283332 493.963737,324.444896 499.171207,342.099487 C504.378676,359.754078 506.982372,381.536215 506.982372,407.44655 C506.982372,434.118954 504.378676,456.409129 499.171207,474.317743 C493.963737,492.226357 486.851203,506.514931 477.83339,517.183893 C468.815577,527.852854 458.400795,535.473427 446.58873,540.045839 C434.776666,544.618251 422.139216,546.904423 408.676003,546.904423 C395.466812,546.904423 382.956372,544.618251 371.144307,540.045839 C359.332243,535.473427 348.980965,527.852854 340.090164,517.183893 C331.199362,506.514931 324.150333,492.226357 318.942863,474.317743 C313.735394,456.409129 311.131698,434.118954 311.131698,407.44655 Z" id="path-1"></path>
        <filter x="-6.4%" y="-3.8%" width="111.9%" height="111.6%" filterUnits="objectBoundingBox" id="filter-2">
            <feGaussianBlur stdDeviation="3.53794643" in="SourceGraphic"></feGaussianBlur>
        </filter>
        <filter x="-9.2%" y="-5.8%" width="117.5%" height="115.6%" filterUnits="objectBoundingBox" id="filter-3">
            <feOffset dx="-2" dy="11" in="SourceAlpha" result="shadowOffsetOuter1"></feOffset>
            <feColorMatrix values="0 0 0 0 0.504809736   0 0 0 0 0.504809736   0 0 0 0 0.504809736  0 0 0 0.75147192 0" type="matrix" in="shadowOffsetOuter1"></feColorMatrix>
        </filter>
    </defs>
    <g id="ОГПО" stroke="none" stroke-width="1" fill="none" fill-rule="evenodd">
        <g id="404" transform="translate(-287.000000, -263.000000)">
            <g id="0" filter="url(#filter-2)" transform="translate(409.057035, 408.399131) rotate(21.000000) translate(-409.057035, -408.399131) ">
                <use fill="black" fill-opacity="1" filter="url(#filter-3)" xlink:href="#path-1"></use>
                <use fill="#9A9A9B" fill-rule="evenodd" xlink:href="#path-1"></use>
            </g>
        </g>
    </g>
</svg>