<?xml version="1.0" encoding="UTF-8" standalone="no"?>
<svg width="33px" height="33px" viewBox="0 0 33 33" version="1.1" xmlns="http://www.w3.org/2000/svg" xmlns:xlink="http://www.w3.org/1999/xlink">
    <!-- Generator: Sketch 40.3 (33839) - http://www.bohemiancoding.com/sketch -->
    <title>noun_826121_cc</title>
    <desc>Created with Sketch.</desc>
    <defs></defs>
    <g id="Page-1" stroke="none" stroke-width="1" fill="none" fill-rule="evenodd">
        <g id="Desktop-add-driver" transform="translate(-599.000000, -913.000000)" fill="#000000">
            <g id="noun_826121_cc" transform="translate(599.000000, 913.000000)">
                <g id="icon-base">
                    <path d="M32.484375,32.6597938 C32.3476688,32.6596747 32.2166057,32.605832 32.12,32.5101031 L0.15125,0.870927835 C-0.0380592165,0.669859342 -0.0324732897,0.356529468 0.163885013,0.162195477 C0.360243316,-0.0321385135 0.676837044,-0.0376668535 0.88,0.149690722 L32.84875,31.788866 C32.9960265,31.9348055 33.0400525,32.15414 32.9603223,32.3447108 C32.8805921,32.5352817 32.6927849,32.6596124 32.484375,32.6597938 L32.484375,32.6597938 Z" id="Shape"></path>
                    <path d="M0.515625,32.6597938 C0.307215113,32.6596124 0.119407917,32.5352817 0.0396777038,32.3447108 C-0.0400525093,32.15414 0.00397354194,31.9348055 0.15125,31.788866 L32.12,0.149690722 C32.323163,-0.0376668535 32.6397567,-0.0321385135 32.836115,0.162195477 C33.0324733,0.356529468 33.0380592,0.669859342 32.84875,0.870927835 L0.88,32.5101031 C0.783394316,32.605832 0.652331178,32.6596747 0.515625,32.6597938 L0.515625,32.6597938 Z" id="Shape"></path>
                </g>
            </g>
        </g>
    </g>
</svg>