<?xml version="1.0" encoding="UTF-8"?>
<svg width="370px" height="100px" viewBox="0 0 370 100" version="1.1" xmlns="http://www.w3.org/2000/svg" xmlns:xlink="http://www.w3.org/1999/xlink">
    <!-- Generator: Sketch 40.3 (33839) - http://www.bohemiancoding.com/sketch -->
    <title>Group</title>
    <desc>Created with Sketch.</desc>
    <defs>
        <linearGradient x1="50%" y1="0%" x2="50%" y2="100%" id="linearGradient-1">
            <stop stop-color="#ACDEF0" offset="0%"></stop>
            <stop stop-color="#34ADDB" offset="100%"></stop>
        </linearGradient>
    </defs>
    <g id="Symbols" stroke="none" stroke-width="1" fill="none" fill-rule="evenodd">
        <g id="Logo">
            <g id="Group">
                <path d="M139.516,98.686 C139.121,98.795 138.754,98.882 138.412,98.949 C138.072,99.017 137.738,99.065 137.408,99.095 C137.08,99.124 136.737,99.141 136.379,99.141 C135.474,99.138 134.67,99.041 133.961,98.849 C133.255,98.657 132.639,98.386 132.121,98.033 C131.601,97.681 131.174,97.262 130.834,96.776 C130.497,96.292 130.245,95.753 130.08,95.164 C129.916,94.575 129.833,93.951 129.833,93.285 C129.836,92.615 129.919,91.996 130.078,91.434 C130.237,90.872 130.457,90.369 130.736,89.922 C131.017,89.479 131.343,89.096 131.712,88.777 C132.071,88.468 132.482,88.211 132.947,88.009 C133.414,87.804 133.921,87.652 134.47,87.549 C135.017,87.449 135.596,87.398 136.203,87.398 C136.411,87.395 136.671,87.406 136.984,87.433 C137.297,87.46 137.664,87.514 138.083,87.6 C138.502,87.684 138.974,87.811 139.5,87.982 L139.262,90.43 C139.03,90.304 138.765,90.179 138.465,90.058 C138.163,89.939 137.836,89.839 137.483,89.758 C137.13,89.679 136.764,89.639 136.379,89.636 C135.981,89.639 135.625,89.684 135.314,89.777 C135.001,89.869 134.728,89.987 134.492,90.134 C134.258,90.279 134.059,90.439 133.894,90.61 C133.701,90.804 133.531,91.039 133.38,91.312 C133.228,91.583 133.112,91.888 133.024,92.226 C132.937,92.564 132.894,92.929 132.891,93.318 C132.894,93.907 132.987,94.424 133.172,94.87 C133.358,95.315 133.619,95.692 133.953,95.992 C134.288,96.294 134.678,96.522 135.129,96.673 C135.578,96.827 136.069,96.902 136.602,96.902 C136.88,96.902 137.175,96.878 137.486,96.835 C137.799,96.789 138.115,96.722 138.436,96.635 C138.754,96.548 139.067,96.443 139.373,96.318 L139.516,98.686 L139.516,98.686 Z M144.561,89.831 L141.822,89.831 L141.822,87.592 L150.263,87.592 L150.263,89.831 L147.523,89.831 L147.523,98.946 L144.561,98.946 L144.561,89.831 L144.561,89.831 Z M156.246,92.831 L157.011,92.831 C157.135,92.834 157.281,92.823 157.446,92.804 C157.61,92.785 157.775,92.745 157.945,92.686 C158.115,92.623 158.271,92.531 158.412,92.41 C158.531,92.299 158.624,92.177 158.685,92.042 C158.749,91.91 158.792,91.774 158.812,91.64 C158.834,91.507 158.845,91.385 158.842,91.274 C158.845,91.129 158.831,90.985 158.804,90.845 C158.778,90.704 158.727,90.569 158.651,90.439 C158.574,90.309 158.462,90.188 158.316,90.074 C158.171,89.968 158.016,89.89 157.855,89.842 C157.692,89.793 157.536,89.763 157.387,89.75 C157.239,89.736 157.114,89.731 157.011,89.733 L156.246,89.733 L156.246,92.831 L156.246,92.831 Z M156.819,87.592 C157.111,87.589 157.435,87.597 157.79,87.616 C158.146,87.635 158.51,87.679 158.885,87.752 C159.256,87.824 159.617,87.938 159.961,88.095 C160.31,88.252 160.62,88.468 160.896,88.741 C161.175,89.014 161.392,89.363 161.555,89.785 C161.716,90.206 161.801,90.72 161.804,91.323 C161.809,91.739 161.748,92.148 161.623,92.547 C161.499,92.948 161.281,93.323 160.976,93.675 C160.697,93.973 160.392,94.208 160.063,94.383 C159.731,94.559 159.399,94.689 159.065,94.773 C158.73,94.859 158.417,94.913 158.128,94.937 C157.836,94.965 157.592,94.975 157.392,94.973 L156.246,94.973 L156.246,98.946 L153.283,98.946 L153.283,87.592 L156.819,87.592 L156.819,87.592 Z M169.795,89.928 L169.763,89.928 L168.329,94.372 L171.117,94.372 L169.795,89.928 L169.795,89.928 Z M167.979,87.592 L171.61,87.592 L175.894,98.946 L172.645,98.946 L171.817,96.53 L167.644,96.53 L166.769,98.946 L163.759,98.946 L167.979,87.592 L167.979,87.592 Z M181.162,92.977 L177.945,87.592 L181.4,87.592 L183.264,91.339 L185.175,87.592 L188.424,87.592 L185.175,92.977 L188.742,98.946 L185.207,98.946 L183.056,94.761 L180.923,98.946 L177.563,98.946 L181.162,92.977 L181.162,92.977 Z M196.764,89.636 C196.396,89.639 196.074,89.701 195.804,89.823 C195.533,89.947 195.307,90.112 195.121,90.317 C194.936,90.525 194.787,90.758 194.67,91.015 C194.553,91.271 194.466,91.536 194.404,91.807 C194.344,92.08 194.302,92.342 194.28,92.593 C194.256,92.848 194.246,93.072 194.248,93.269 C194.246,93.467 194.256,93.691 194.28,93.945 C194.302,94.197 194.344,94.459 194.404,94.729 C194.466,95.002 194.553,95.267 194.67,95.524 C194.787,95.781 194.936,96.013 195.121,96.221 C195.307,96.427 195.533,96.591 195.804,96.713 C196.074,96.837 196.396,96.9 196.764,96.902 C197.139,96.9 197.46,96.837 197.731,96.713 C198.002,96.591 198.229,96.427 198.415,96.221 C198.601,96.013 198.75,95.781 198.864,95.524 C198.981,95.267 199.069,95.002 199.126,94.729 C199.188,94.459 199.23,94.197 199.252,93.945 C199.273,93.691 199.284,93.467 199.281,93.269 C199.284,93.072 199.273,92.848 199.252,92.593 C199.23,92.342 199.188,92.08 199.126,91.807 C199.069,91.536 198.981,91.271 198.864,91.015 C198.75,90.758 198.601,90.525 198.415,90.317 C198.229,90.112 198.002,89.947 197.731,89.823 C197.46,89.701 197.139,89.639 196.764,89.636 L196.764,89.636 Z M196.764,87.398 C197.006,87.395 197.293,87.408 197.619,87.438 C197.948,87.471 198.296,87.536 198.671,87.635 C199.042,87.733 199.419,87.884 199.795,88.09 C200.173,88.293 200.531,88.563 200.873,88.906 C201.197,89.241 201.457,89.603 201.654,89.993 C201.85,90.382 201.996,90.777 202.097,91.171 C202.195,91.569 202.261,91.947 202.293,92.31 C202.326,92.669 202.341,92.991 202.338,93.269 C202.341,93.547 202.326,93.869 202.293,94.229 C202.261,94.588 202.195,94.97 202.097,95.364 C201.996,95.762 201.85,96.156 201.654,96.546 C201.457,96.935 201.197,97.298 200.873,97.632 C200.531,97.973 200.173,98.246 199.795,98.449 C199.419,98.652 199.042,98.803 198.671,98.903 C198.296,99.003 197.948,99.068 197.619,99.098 C197.293,99.13 197.006,99.144 196.764,99.141 C196.526,99.144 196.241,99.13 195.912,99.098 C195.583,99.068 195.23,99.003 194.853,98.903 C194.477,98.803 194.099,98.652 193.723,98.449 C193.346,98.246 192.99,97.973 192.656,97.632 C192.335,97.292 192.077,96.927 191.883,96.538 C191.687,96.148 191.541,95.757 191.44,95.359 C191.339,94.965 191.273,94.586 191.238,94.227 C191.204,93.867 191.188,93.547 191.19,93.269 C191.188,92.991 191.204,92.669 191.235,92.31 C191.268,91.947 191.334,91.569 191.435,91.171 C191.533,90.777 191.679,90.382 191.875,89.993 C192.072,89.603 192.332,89.241 192.656,88.906 C192.993,88.563 193.351,88.29 193.731,88.087 C194.108,87.881 194.485,87.73 194.859,87.627 C195.235,87.528 195.586,87.463 195.915,87.433 C196.241,87.403 196.526,87.389 196.764,87.398 L196.764,87.398 Z M208.736,92.085 L209.565,92.085 C209.761,92.088 209.97,92.074 210.196,92.045 C210.421,92.015 210.634,91.958 210.838,91.875 C211.043,91.79 211.208,91.669 211.338,91.509 C211.468,91.35 211.536,91.142 211.54,90.885 C211.542,90.736 211.521,90.596 211.478,90.458 C211.436,90.323 211.351,90.198 211.229,90.09 C211.106,89.982 210.929,89.896 210.693,89.831 C210.459,89.766 210.151,89.733 209.771,89.733 L208.736,89.733 L208.736,92.085 L208.736,92.085 Z M208.736,96.806 L209.74,96.806 C209.907,96.806 210.09,96.798 210.284,96.779 C210.477,96.76 210.669,96.724 210.852,96.675 C211.038,96.627 211.197,96.557 211.332,96.465 C211.473,96.362 211.581,96.254 211.651,96.143 C211.722,96.032 211.77,95.924 211.794,95.813 C211.818,95.702 211.829,95.594 211.826,95.492 C211.829,95.232 211.775,95.005 211.666,94.813 C211.558,94.618 211.377,94.461 211.125,94.34 C211.069,94.315 210.987,94.288 210.875,94.256 C210.764,94.224 210.61,94.194 210.414,94.17 C210.217,94.143 209.96,94.129 209.644,94.129 L208.736,94.129 L208.736,96.806 L208.736,96.806 Z M205.774,87.592 L210.886,87.592 C211.032,87.589 211.223,87.6 211.454,87.619 C211.682,87.641 211.935,87.684 212.205,87.747 C212.476,87.811 212.747,87.908 213.017,88.036 C213.286,88.165 213.533,88.336 213.756,88.552 C213.979,88.766 214.159,89.033 214.294,89.355 C214.43,89.676 214.499,90.063 214.501,90.512 C214.499,90.936 214.44,91.299 214.326,91.596 C214.212,91.896 214.058,92.148 213.87,92.348 C213.679,92.547 213.469,92.707 213.238,92.831 C213.01,92.955 212.776,93.053 212.543,93.123 L212.543,93.156 C212.726,93.18 212.919,93.226 213.124,93.293 C213.328,93.359 213.53,93.453 213.726,93.577 C213.923,93.699 214.101,93.856 214.26,94.048 C214.419,94.24 214.547,94.473 214.642,94.748 C214.738,95.024 214.785,95.345 214.788,95.719 C214.785,96.059 214.745,96.362 214.671,96.629 C214.594,96.9 214.496,97.132 214.377,97.335 C214.255,97.535 214.127,97.705 213.99,97.846 C213.852,97.987 213.719,98.1 213.593,98.184 C213.358,98.346 213.1,98.476 212.826,98.576 C212.551,98.678 212.272,98.754 211.99,98.809 C211.706,98.863 211.433,98.898 211.171,98.919 C210.908,98.938 210.671,98.946 210.457,98.946 L205.774,98.946 L205.774,87.592 L205.774,87.592 Z M223.097,89.928 L223.065,89.928 L221.632,94.372 L224.419,94.372 L223.097,89.928 L223.097,89.928 Z M221.281,87.592 L224.913,87.592 L229.197,98.946 L225.948,98.946 L225.12,96.53 L220.947,96.53 L220.072,98.946 L217.061,98.946 L221.281,87.592 L221.281,87.592 Z M236.678,89.733 C236.574,89.731 236.45,89.736 236.301,89.75 C236.152,89.763 235.996,89.793 235.834,89.842 C235.672,89.89 235.517,89.968 235.372,90.074 C235.226,90.188 235.114,90.309 235.037,90.439 C234.96,90.569 234.91,90.704 234.884,90.845 C234.856,90.985 234.844,91.129 234.847,91.274 C234.844,91.375 234.855,91.49 234.875,91.623 C234.896,91.755 234.94,91.891 235.003,92.028 C235.064,92.167 235.157,92.293 235.276,92.41 C235.423,92.531 235.579,92.623 235.748,92.686 C235.919,92.745 236.086,92.785 236.248,92.804 C236.41,92.823 236.553,92.834 236.678,92.831 L237.442,92.831 L237.442,89.733 L236.678,89.733 L236.678,89.733 Z M240.404,98.946 L237.442,98.946 L237.442,94.973 L236.47,94.973 L234.528,98.946 L231.215,98.946 L233.875,94.227 C233.453,94.107 233.108,93.94 232.845,93.718 C232.582,93.496 232.38,93.247 232.24,92.969 C232.101,92.691 232.006,92.41 231.956,92.123 C231.906,91.837 231.881,91.569 231.884,91.323 C231.887,90.922 231.924,90.569 231.998,90.258 C232.07,89.949 232.168,89.679 232.287,89.449 C232.409,89.22 232.539,89.023 232.683,88.86 C232.826,88.695 232.97,88.56 233.111,88.452 C233.201,88.381 233.331,88.298 233.506,88.201 C233.679,88.106 233.912,88.012 234.201,87.919 C234.491,87.824 234.855,87.749 235.293,87.687 C235.728,87.627 236.256,87.595 236.869,87.592 L240.404,87.592 L240.404,98.946 L240.404,98.946 Z M259.097,87.592 L262.059,87.592 L262.059,92.231 L262.091,92.231 L265.436,87.592 L269.003,87.592 L264.894,92.88 L269.322,98.946 L265.547,98.946 L262.091,93.788 L262.059,93.788 L262.059,98.946 L259.097,98.946 L259.097,87.592 L259.097,87.592 Z M277.535,89.636 C277.166,89.639 276.844,89.701 276.574,89.823 C276.304,89.947 276.078,90.112 275.892,90.317 C275.706,90.525 275.557,90.758 275.441,91.015 C275.324,91.271 275.236,91.536 275.175,91.807 C275.114,92.08 275.072,92.342 275.051,92.593 C275.027,92.848 275.016,93.072 275.018,93.269 C275.016,93.467 275.027,93.691 275.051,93.945 C275.072,94.197 275.114,94.459 275.175,94.729 C275.236,95.002 275.324,95.267 275.441,95.524 C275.557,95.781 275.706,96.013 275.892,96.221 C276.078,96.427 276.304,96.591 276.574,96.713 C276.844,96.837 277.166,96.9 277.535,96.902 C277.909,96.9 278.23,96.837 278.501,96.713 C278.772,96.591 279,96.427 279.186,96.221 C279.372,96.013 279.52,95.781 279.634,95.524 C279.751,95.267 279.839,95.002 279.897,94.729 C279.959,94.459 280.001,94.197 280.022,93.945 C280.044,93.691 280.054,93.467 280.051,93.269 C280.054,93.072 280.044,92.848 280.022,92.593 C280.001,92.342 279.959,92.08 279.897,91.807 C279.839,91.536 279.751,91.271 279.634,91.015 C279.52,90.758 279.372,90.525 279.186,90.317 C279,90.112 278.772,89.947 278.501,89.823 C278.23,89.701 277.909,89.639 277.535,89.636 L277.535,89.636 Z M277.535,87.398 C277.776,87.395 278.063,87.408 278.389,87.438 C278.718,87.471 279.066,87.536 279.441,87.635 C279.813,87.733 280.189,87.884 280.566,88.09 C280.943,88.293 281.301,88.563 281.644,88.906 C281.967,89.241 282.228,89.603 282.424,89.993 C282.62,90.382 282.766,90.777 282.867,91.171 C282.966,91.569 283.032,91.947 283.064,92.31 C283.096,92.669 283.112,92.991 283.109,93.269 C283.112,93.547 283.096,93.869 283.064,94.229 C283.032,94.588 282.966,94.97 282.867,95.364 C282.766,95.762 282.62,96.156 282.424,96.546 C282.228,96.935 281.967,97.298 281.644,97.632 C281.301,97.973 280.943,98.246 280.566,98.449 C280.189,98.652 279.813,98.803 279.441,98.903 C279.066,99.003 278.718,99.068 278.389,99.098 C278.063,99.13 277.776,99.144 277.535,99.141 C277.296,99.144 277.012,99.13 276.683,99.098 C276.353,99.068 276,99.003 275.624,98.903 C275.247,98.803 274.87,98.652 274.493,98.449 C274.116,98.246 273.761,97.973 273.426,97.632 C273.105,97.292 272.847,96.927 272.653,96.538 C272.458,96.148 272.311,95.757 272.21,95.359 C272.11,94.965 272.043,94.586 272.009,94.227 C271.974,93.867 271.958,93.547 271.961,93.269 C271.958,92.991 271.974,92.669 272.006,92.31 C272.038,91.947 272.105,91.569 272.205,91.171 C272.303,90.777 272.449,90.382 272.646,89.993 C272.842,89.603 273.102,89.241 273.426,88.906 C273.763,88.563 274.121,88.29 274.501,88.087 C274.878,87.881 275.255,87.73 275.629,87.627 C276.006,87.528 276.356,87.463 276.686,87.433 C277.012,87.403 277.296,87.389 277.535,87.398 L277.535,87.398 Z M286.544,87.592 L291.211,87.592 L293.568,95.134 L293.6,95.134 L296.068,87.592 L300.559,87.592 L300.559,98.946 L297.661,98.946 L297.661,90.22 L297.676,90.22 L294.842,98.946 L292.118,98.946 L289.411,90.22 L289.38,90.22 L289.38,98.946 L286.544,98.946 L286.544,87.592 L286.544,87.592 Z M304.409,87.592 L313.678,87.592 L313.678,98.946 L310.716,98.946 L310.716,89.733 L307.372,89.733 L307.372,98.946 L304.409,98.946 L304.409,87.592 L304.409,87.592 Z M322.369,89.928 L322.337,89.928 L320.904,94.372 L323.691,94.372 L322.369,89.928 L322.369,89.928 Z M320.554,87.592 L324.185,87.592 L328.469,98.946 L325.219,98.946 L324.391,96.53 L320.219,96.53 L319.343,98.946 L316.333,98.946 L320.554,87.592 L320.554,87.592 Z M331.124,87.592 L334.086,87.592 L334.086,91.94 L337.59,91.94 L337.59,87.592 L340.552,87.592 L340.552,98.946 L337.59,98.946 L337.59,94.08 L334.086,94.08 L334.086,98.946 L331.124,98.946 L331.124,87.592 L331.124,87.592 Z M344.402,87.592 L347.364,87.592 L347.364,95.248 L350.804,87.592 L354.355,87.592 L354.355,98.946 L351.394,98.946 L351.394,91.29 L347.954,98.946 L344.402,98.946 L344.402,87.592 L344.402,87.592 Z M363.031,89.733 C362.927,89.731 362.803,89.736 362.654,89.75 C362.506,89.763 362.349,89.793 362.187,89.842 C362.025,89.89 361.871,89.968 361.725,90.074 C361.579,90.188 361.468,90.309 361.391,90.439 C361.313,90.569 361.264,90.704 361.237,90.845 C361.21,90.985 361.197,91.129 361.2,91.274 C361.197,91.375 361.208,91.49 361.228,91.623 C361.25,91.755 361.293,91.891 361.356,92.028 C361.417,92.167 361.51,92.293 361.629,92.41 C361.776,92.531 361.933,92.623 362.102,92.686 C362.272,92.745 362.439,92.785 362.602,92.804 C362.763,92.823 362.906,92.834 363.031,92.831 L363.796,92.831 L363.796,89.733 L363.031,89.733 L363.031,89.733 Z M366.757,98.946 L363.796,98.946 L363.796,94.973 L362.824,94.973 L360.881,98.946 L357.569,98.946 L360.228,94.227 C359.806,94.107 359.461,93.94 359.198,93.718 C358.936,93.496 358.733,93.247 358.593,92.969 C358.455,92.691 358.36,92.41 358.309,92.123 C358.259,91.837 358.235,91.569 358.238,91.323 C358.241,90.922 358.278,90.569 358.352,90.258 C358.423,89.949 358.521,89.679 358.641,89.449 C358.763,89.22 358.893,89.023 359.036,88.86 C359.179,88.695 359.323,88.56 359.464,88.452 C359.554,88.381 359.684,88.298 359.859,88.201 C360.032,88.106 360.265,88.012 360.555,87.919 C360.844,87.824 361.208,87.749 361.646,87.687 C362.081,87.627 362.609,87.595 363.223,87.592 L366.757,87.592 L366.757,98.946 L366.757,98.946 Z M209.403,58.112 C209.432,59.793 209.66,61.607 210.981,62.334 C211.387,62.585 211.875,62.783 212.314,62.966 C213.523,63.468 214.62,63.72 215.607,63.72 C217.434,63.72 219.349,62.807 220.628,61.095 C222.358,58.786 223.852,55.291 223.852,50.617 C223.852,46.394 222.661,43.142 220.838,40.982 C219.357,39.225 217.173,38.463 215.003,38.463 C214.067,38.463 212.842,38.615 212.048,38.923 L212.048,38.925 L212.036,38.928 L212.035,38.929 L212.02,38.935 L212.005,38.941 L211.982,38.95 L211.978,38.952 L211.964,38.957 L211.958,38.96 L211.95,38.964 C211.688,39.075 211.441,39.221 211.211,39.399 C209.545,40.686 209.397,42.639 209.397,44.541 C209.397,49.077 209.405,53.583 209.403,58.112 L209.403,58.112 Z M209.413,73.901 C209.413,75.931 209.134,78.04 211.34,78.611 C211.818,78.734 212.663,78.802 213.071,79 C213.491,79.204 213.773,79.639 213.77,80.14 C213.769,80.618 213.462,81.08 213.026,81.287 C212.719,81.432 212.272,81.458 211.944,81.508 C210.431,81.744 208.99,81.972 207.636,82.27 C205.7,82.695 203.657,83.056 201.736,83.536 C201.102,83.675 200.457,83.611 200.389,82.898 C200.376,82.154 200.343,81.17 200.344,80.674 C200.399,67.888 200.367,55.093 200.367,42.304 C200.367,40.276 200.645,38.165 198.44,37.595 C197.962,37.471 197.117,37.404 196.709,37.206 C196.288,37.001 196.006,36.566 196.009,36.066 C196.012,35.589 196.318,35.126 196.753,34.92 C197.06,34.774 197.508,34.749 197.837,34.698 C199.349,34.461 200.79,34.234 202.144,33.936 C204.08,33.511 206.123,33.15 208.045,32.671 C208.678,32.529 209.323,32.594 209.39,33.308 C209.403,34.051 209.424,35.032 209.435,35.533 C209.455,36.373 210.076,36.73 210.752,36.39 C212.155,35.52 213.476,34.521 214.907,33.776 C219.69,31.288 225.558,33.15 228.858,37.334 C231.034,40.093 231.963,43.519 232.339,47.421 C233.462,59.092 224.934,70.289 211.647,67.377 C209.748,67.028 209.397,67.91 209.396,68.685 C209.395,70.451 209.414,72.161 209.413,73.901 L209.413,73.901 Z M141.347,18.195 C145.254,18.196 148.852,18.133 151.78,18.138 C153.917,18.141 155.7,18.41 156.986,18.543 C156.998,18.543 157.009,18.546 157.019,18.552 C157.47,18.599 157.824,18.985 157.83,19.452 L157.83,19.464 L157.83,19.468 L158.349,26.737 C158.378,27.136 158.404,27.483 158.221,27.866 C157.96,28.416 157.406,28.801 156.766,28.803 C156.167,28.8 155.637,28.453 155.363,27.957 C155.271,27.79 155.22,27.628 155.164,27.448 C154.588,25.598 153.927,24.282 153.191,23.517 C152.108,22.388 149.436,21.069 145.197,21.069 L142.309,21.069 C140.883,21.069 140.027,21.181 139.755,21.407 C139.485,21.633 139.349,22.404 139.349,23.706 L139.349,35.872 C139.349,36.459 139.292,37.118 139.462,37.687 C139.733,38.598 140.457,39.319 141.377,39.567 C141.863,39.697 142.393,39.66 142.894,39.66 L144.753,39.66 C147.911,39.66 149.823,39.372 150.489,38.792 C151.024,38.329 151.469,37.063 151.827,34.993 C151.867,34.765 151.894,34.492 151.975,34.273 C152.178,33.725 152.701,33.329 153.306,33.329 C153.937,33.329 154.472,33.745 154.663,34.314 L154.66,48.873 C154.465,49.426 153.935,49.835 153.319,49.837 C152.765,49.835 152.28,49.508 152.046,49.038 C151.914,48.772 151.892,48.471 151.844,48.182 C151.509,46.195 151.059,44.949 150.489,44.447 C149.774,43.819 147.861,43.505 144.753,43.505 L142.725,43.505 C142.211,43.505 141.723,43.483 141.221,43.655 C140.369,43.948 139.703,44.655 139.451,45.541 C139.314,46.03 139.349,46.529 139.349,47.03 L139.251,55.533 C139.219,58.394 139.365,60.331 139.584,61.309 C139.804,62.287 140.302,63.005 141.102,63.382 C141.683,63.656 142.423,63.797 143.285,63.872 C144.148,63.947 145.523,64.032 147.393,63.985 C153.223,63.84 155.851,62.424 158.191,56.279 C158.449,55.705 158.638,54.702 159.923,54.673 C160.696,54.673 161.344,55.223 161.511,55.952 C161.61,56.383 161.492,56.817 161.415,57.24 C161.227,58.27 161.016,59.379 160.782,60.562 C160.326,62.868 159.935,64.572 159.618,65.69 C159.616,65.699 159.609,65.707 159.605,65.715 C159.491,66.046 159.194,66.293 158.838,66.328 L158.824,66.332 C157.68,66.622 156.199,66.762 154.324,66.765 C150.981,66.772 146.637,66.922 141.874,66.949 C136.766,66.978 132.045,67.041 128.546,66.987 C126.583,66.956 124.947,66.667 123.897,66.498 L123.904,66.485 C123.809,66.469 123.713,66.443 123.615,66.399 C123.197,66.202 122.909,65.777 122.911,65.281 C122.911,64.757 123.242,64.304 123.701,64.131 C123.991,64.024 124.361,64.058 124.665,64.034 C126.63,63.873 127.935,63.402 128.499,62.631 C129.215,61.654 129.573,59.101 129.573,54.979 L129.725,30.036 C129.75,25.966 129.402,23.426 128.762,22.423 C128.264,21.641 127.142,21.161 125.404,20.99 C125.164,20.967 124.875,20.977 124.647,20.906 C124.159,20.748 123.8,20.278 123.8,19.727 C123.8,19.187 124.153,18.722 124.633,18.563 C124.702,18.539 124.776,18.523 124.846,18.513 L124.846,18.511 C125.711,18.361 126.957,18.206 128.493,18.168 C131.753,18.089 136.322,18.192 141.347,18.195 L141.347,18.195 Z M322.367,35.3 C322.367,35.056 322.347,34.693 322.449,34.461 C322.537,34.265 322.698,34.105 322.9,34.016 C323.141,33.908 323.524,33.911 323.784,33.883 C324.073,33.849 324.368,33.812 324.67,33.775 C326.533,33.538 328.064,33.337 329.243,33.174 C329.602,33.126 330.148,33.005 330.519,33.005 C330.89,33.005 331.211,33.237 331.348,33.569 C331.442,33.798 331.417,34.055 331.417,34.296 C331.417,42.871 331.442,51.422 331.442,60.009 C331.502,62.05 331.913,64.195 334.239,64.319 L334.285,64.319 C334.347,64.319 334.407,64.322 334.468,64.332 L334.514,64.334 L334.514,64.341 C335.071,64.45 335.492,64.909 335.492,65.548 C335.492,66.187 334.95,66.817 334.285,66.778 L334.19,66.773 L327.086,66.773 C327.007,66.778 326.927,66.78 326.846,66.78 C325.694,66.78 324.641,66.329 323.847,65.586 C323.112,64.995 322.764,64.022 322.205,63.81 C321.536,63.556 320.475,63.895 318.892,64.948 C317.658,65.752 315.772,66.547 314.786,66.898 C313.799,67.25 312.737,67.427 311.602,67.427 C308.542,67.427 306.186,66.508 304.533,64.674 C302.879,62.839 302.053,60.415 302.053,57.398 C302.053,51.651 302.009,45.968 302.009,40.26 C302.009,38.902 301.873,38.009 301.603,37.583 C301.332,37.157 300.702,36.867 299.715,36.716 C299.333,36.654 298.804,36.633 298.441,36.456 C298.031,36.258 297.757,35.835 297.76,35.347 C297.762,34.883 298.06,34.433 298.483,34.231 C298.789,34.085 299.191,34.117 299.52,34.102 C300.936,34.033 302.536,33.925 304.304,33.701 C306.168,33.465 307.699,33.263 308.878,33.101 C309.237,33.052 309.782,32.932 310.153,32.932 C310.524,32.932 310.845,33.164 310.982,33.495 C311.076,33.723 311.051,33.981 311.051,34.223 C311.051,41.018 311.084,48.711 311.084,55.514 C311.084,57.625 311.541,59.184 312.453,60.188 C313.366,61.193 314.588,61.696 316.118,61.696 C317.391,61.696 318.694,61.317 320.026,60.561 C321.658,59.653 322.369,58.025 322.398,56.611 C322.371,49.511 322.354,42.4 322.367,35.3 L322.367,35.3 Z M177.799,32.758 C182.231,32.41 186.661,32.892 190.681,35.379 C192.58,36.56 193.53,38.458 193.53,41.071 C193.53,43.232 192.691,44.967 191.014,46.274 C190.284,46.821 189.382,47.317 188.312,47.762 C187.711,48.01 187.745,48.222 187.736,48.334 C187.734,48.406 187.666,48.695 188.273,48.856 C190.052,49.328 191.536,50.049 192.716,51.023 C194.592,52.581 195.529,54.567 195.529,56.979 C195.529,60.497 193.873,63.054 190.57,64.669 C187.704,66.069 183.61,66.78 178.281,66.78 L167.297,66.78 C166.804,66.78 166.398,66.368 166.398,65.859 L166.4,65.832 L166.398,65.832 C166.398,57.791 166.383,49.788 166.383,41.75 C166.346,38.615 166.415,38.295 164.057,37.21 C163.638,37.034 163.341,36.627 163.317,36.14 C163.294,35.677 163.567,35.21 163.98,34.985 C164.289,34.812 164.706,34.787 165.168,34.691 C169.324,33.833 173.727,33.064 177.799,32.758 L177.799,32.758 Z M175.232,38.209 C175.227,40.867 175.221,43.422 175.217,46.079 C175.298,47.222 176.201,47.406 176.594,47.438 L177.083,47.438 C179.106,47.438 180.8,47.079 182.133,46.124 C183.465,45.169 184.132,43.763 184.132,41.903 C184.132,39.993 183.587,38.573 182.503,37.644 C181.418,36.714 179.962,36.249 178.136,36.249 C176.802,36.249 175.988,36.349 175.693,36.55 C175.398,36.751 175.232,37.304 175.232,38.209 L175.232,38.209 Z M177.412,50.396 C177.171,50.392 176.933,50.386 176.693,50.38 C175.477,50.478 175.249,51.298 175.268,51.884 L175.249,58.925 C175.249,60.934 175.576,62.33 176.211,63.089 C176.712,63.686 177.544,63.992 178.728,63.992 C180.653,63.992 182.294,63.377 183.65,62.146 C185.008,60.916 185.686,59.168 185.686,56.906 C185.686,52.483 182.938,50.396 177.412,50.396 L177.412,50.396 Z M253.387,56.183 L253.381,50.46 L253.382,50.423 L253.382,50.388 C253.382,49.589 252.746,48.939 251.96,48.939 C251.683,48.939 251.427,49.018 251.208,49.158 L248.42,50.769 C245.781,52.293 244.396,54.739 244.449,57.278 C244.501,59.791 246.455,61.837 248.903,61.837 C250.823,61.837 252.461,60.603 253.098,58.873 C253.426,57.978 253.387,57.112 253.387,56.183 L253.387,56.183 Z M262.121,41.869 L262.121,58.718 C262.121,60.225 262.306,61.319 262.677,61.997 C262.99,62.572 263.382,62.903 263.855,62.989 C264.616,63.114 265.198,63.788 265.198,64.598 C265.198,65.203 264.872,65.73 264.391,66.01 L264.393,66.013 C263.041,66.807 261.428,67.41 259.752,67.427 C258.228,67.427 256.947,67.053 255.922,66.359 C254.756,65.57 254.175,64.203 252.554,64.203 C251.148,64.203 250.199,65.407 249.14,66.161 C248.029,66.951 246.914,67.427 245.133,67.427 C242.431,67.427 240.21,66.458 238.459,64.524 C236.719,62.588 235.842,60.464 235.842,58.153 C235.842,54.384 237.743,51.719 241.543,50.161 C243.664,49.307 245.793,48.441 247.908,47.522 C249.485,46.838 250.77,46.24 251.758,45.732 L251.769,45.729 L251.769,45.728 C252.725,45.282 253.388,44.3 253.388,43.162 L253.386,43.053 L253.386,42.094 C253.386,38.662 252.377,35.76 249.448,35.646 C244.228,35.439 243.79,40.026 243.14,43.437 C242.898,44.706 241.841,45.412 240.728,45.412 C239.889,45.412 238.998,45.089 238.063,44.432 C236.925,43.631 236.92,42.772 236.92,41.869 C236.92,36.521 242.644,32.352 249.458,32.445 C257.275,32.551 262.121,34.431 262.121,41.869 L262.121,41.869 Z M290.863,34.781 C293.108,36.34 294.231,38.475 294.231,41.189 C294.231,42.094 294.02,42.899 293.601,43.601 C293.182,44.307 292.688,44.872 292.121,45.297 C291.553,45.725 290.748,46.213 289.678,46.693 C289.173,46.919 288.624,47.139 288.033,47.352 C287.296,47.598 287.216,48.248 287.949,48.465 C290.013,48.988 291.737,49.791 293.119,50.878 C294.947,52.31 295.86,54.332 295.86,56.946 C295.86,60.213 294.367,62.776 291.382,64.637 C288.396,66.496 284.608,67.427 280.018,67.427 C277.748,67.427 275.65,67.124 273.726,66.521 C271.8,65.918 270.296,65.115 269.21,64.109 C268.519,63.506 268.026,62.864 267.731,62.186 C267.434,61.507 267.285,60.792 267.285,60.038 C267.285,59.133 267.668,58.266 268.433,57.436 C269.198,56.607 270.073,56.193 271.061,56.193 C272.542,56.193 273.8,57.298 274.835,59.511 C275.527,61.068 276.378,62.274 277.39,63.129 C278.402,63.983 279.475,64.411 280.61,64.411 C282.09,64.411 283.35,63.757 284.385,62.451 C285.421,61.144 285.94,59.535 285.94,57.625 C285.94,55.463 285.514,53.733 284.682,52.424 C282.044,48.271 281.132,52.256 278.153,50.236 C277.635,49.886 277.376,49.282 277.376,48.427 C277.376,47.622 277.66,47.031 278.227,46.655 C280.842,44.92 282.036,47.615 283.793,45.412 C284.522,44.498 284.904,43.226 284.904,41.566 C284.904,39.807 284.409,38.376 283.422,37.269 C281.423,35.028 278.834,35.477 276.481,36.95 C274.48,38.202 273.146,40.37 272.046,43.326 C271.84,43.859 271.325,44.24 270.725,44.24 C270.022,44.24 269.43,43.699 269.333,43.008 C269.309,42.821 269.325,42.649 269.339,42.466 C269.407,41.659 269.502,40.761 269.625,39.779 C269.855,37.95 270.076,36.679 270.288,35.967 L270.29,35.962 C270.359,35.736 270.49,35.537 270.664,35.386 L270.665,35.383 C271.502,34.635 272.711,33.989 274.289,33.446 C279.055,31.806 286.838,31.99 290.863,34.781 L290.863,34.781 Z M357.918,38.459 C357.924,41.1 357.906,45.394 357.91,48.035 C357.83,49.169 356.933,49.352 356.542,49.384 L356.057,49.384 C354.047,49.384 352.363,49.027 351.039,48.079 C349.145,46.697 348.378,44.626 348.42,42.598 C348.503,38.682 350.539,36.291 354.873,36.291 C356.198,36.291 357.167,36.612 357.46,36.811 C357.754,37.011 357.918,37.56 357.918,38.459 L357.918,38.459 Z M349.217,33.545 C344.479,34.033 339.259,36.488 339.301,42.116 C339.337,47.18 342.928,49.246 347.04,50.659 C347.452,50.813 348.368,51.239 347.651,52.723 C346.191,55.478 345.55,56.585 343.593,59.493 C342.462,61.357 340.343,63.385 338.925,64.1 C338.502,64.312 338.13,64.271 337.744,64.452 C337.342,64.642 337.082,65.041 337.085,65.556 C337.089,66.272 337.665,66.813 338.358,66.774 L345.24,66.774 C345.318,66.778 345.395,66.78 345.474,66.78 C347.615,66.729 348.426,65.557 349.486,64.012 L355.708,53.554 C356.367,52.448 357.66,52.732 357.666,54.185 C357.688,58.446 357.705,61.57 357.705,65.823 L357.705,65.849 C357.705,66.354 358.108,66.765 358.604,66.765 L358.639,66.763 L358.639,66.765 L365.775,66.765 L365.775,66.764 L365.783,66.765 C366.275,66.765 366.678,66.355 366.678,65.849 L366.676,65.823 L366.678,65.823 C366.678,57.756 366.639,48.117 366.639,40.055 C366.639,36.962 366.826,36.454 368.994,35.642 C369.41,35.467 369.706,35.063 369.729,34.58 C369.751,34.119 369.48,33.655 369.071,33.432 C368.884,33.33 368.493,33.224 368.267,33.203 C362.775,33.118 354.215,33.03 349.217,33.545 L349.217,33.545 Z" id="Fill-642" fill="#FFFFFF"></path>
                <path d="M44.025,98.082 C46.046,98.875 48.201,99.275 50.359,99.277 C52.517,99.28 54.676,98.886 56.705,98.092 C80.024,84.453 99.147,50.854 100.378,23.605 C99.029,1.409 66.345,-0.033 50.373,0.068 C34.727,-0.032 1.685,1.893 0.368,23.611 C1.603,50.851 20.716,84.442 44.025,98.082 L4.17884792,35.7559381" id="Fill-643" fill="#0098D1"></path>
                <path d="M26.4800842,49 C29.7815348,47.3831207 37.1188523,44.3209502 39.0397178,43.569266 C60.0344203,31.2897193 91.2480272,21.9116949 93.3795899,21.0981985 C95.5111525,20.284702 95.5844835,18.7291561 95.5844835,15.9640335 C91.0284755,1.67345338 64.7807708,1.9085797 49.6599901,2.00419696 C34.8478354,1.9095264 3.56679134,3.73193455 2.31998016,24.2924852 C2.59728865,27.8832475 2.21141994,27.5630095 3.5393891,33.8772862 C4.86735826,40.1915629 6.02505459,46.3562655 12.5755841,59.5801197 C14.488876,60.3308572 23.3564017,50.5298176 26.4800842,49 Z" id="Fill-643" fill="url(#linearGradient-1)" opacity="0.499943388"></path>
                <path d="M50.306,76.576 C60.815,64.852 69.017,55.703 79.527,43.979 C82.779,40.351 84.968,38.401 81.908,34.612 L75.541,26.728 L59.925,22.622 L40.454,22.622 L24.84,26.728 C22.445,29.69 20.741,31.801 18.348,34.762 C16.078,37.569 18.169,40.878 20.575,43.562 L50.074,76.576 L50.189,76.711 L50.306,76.576 Z" id="Fill-963" fill="#FEFEFE"></path>
                <path d="M75.163,28.091 C71.823,30.46 67.647,31.492 63.404,32.406 C65.606,32.207 66.752,32.104 68.956,31.903 C70.39,31.772 71.493,31.591 72.499,32.627 L77.36,37.614 C76.373,35.793 75.388,33.97 74.403,32.146 C73.788,31.007 73.768,31.041 74.322,29.871 C74.602,29.278 74.882,28.685 75.163,28.091" id="Fill-964" fill="#0098D1"></path>
                <path d="M23.973,42.352 C26.573,42.94 26.984,43.032 29.586,43.619 C31.29,44.004 33.99,43.637 34.758,42.041 L37.539,36.265 C37.298,40.21 35.209,44.982 39.66,45.892 L47.842,48.799 C44.281,48.515 41.021,47.542 39.542,48.399 C37.801,49.405 38.847,51.072 39.368,52.303 L46.657,69.513 C42.026,60.888 37.982,54.244 32.165,48.594 C29.802,46.299 27.032,44.687 23.973,42.352" id="Fill-965" fill="#0098D1"></path>
                <path d="M25.216,28.091 C28.108,30.226 32.517,31.335 36.977,32.406 C34.722,32.202 32.466,31.997 30.213,31.793 C28.811,31.666 28.816,31.666 27.825,32.682 L23.019,37.614 C24.072,35.665 25.125,33.717 26.178,31.767 C26.603,30.984 26.591,31.016 26.215,30.21 C25.882,29.504 25.548,28.798 25.216,28.091" id="Fill-966" fill="#0098D1"></path>
                <path d="M50.281,43.958 L50.179,44.409 L50.1,43.958 C49.667,41.906 49.236,39.852 48.805,37.799 C48.301,35.387 48.493,35.437 46.185,34.723 C44.161,34.098 42.139,33.473 40.116,32.848 C46.832,34.03 53.545,34.03 60.265,32.848 C50.979,35.717 52.312,34.274 50.281,43.958" id="Fill-967" fill="#0098D1"></path>
                <path d="M77.149,42.352 C74.549,42.94 74.138,43.032 71.536,43.619 C69.831,44.004 67.132,43.637 66.364,42.041 L63.583,36.265 C63.824,40.21 65.913,44.982 61.462,45.892 L53.28,48.799 C56.84,48.515 60.101,47.542 61.58,48.399 C63.321,49.405 62.275,51.072 61.754,52.303 L54.465,69.513 C59.096,60.888 63.14,54.244 68.957,48.594 C71.32,46.299 74.09,44.687 77.149,42.352" id="Fill-968" fill="#0098D1"></path>
            </g>
        </g>
    </g>
</svg>