<?xml version="1.0" encoding="UTF-8"?>
<svg width="370px" height="100px" viewBox="0 0 370 100" version="1.1" xmlns="http://www.w3.org/2000/svg" xmlns:xlink="http://www.w3.org/1999/xlink">
    <!-- Generator: Sketch 40.3 (33839) - http://www.bohemiancoding.com/sketch -->
    <title>Group 3</title>
    <desc>Created with Sketch.</desc>
    <defs>
        <linearGradient x1="50%" y1="0%" x2="50%" y2="100%" id="linearGradient-1">
            <stop stop-color="#ACDEF0" offset="0%"></stop>
            <stop stop-color="#34ADDB" offset="100%"></stop>
        </linearGradient>
    </defs>
    <g id="Page-1" stroke="none" stroke-width="1" fill="none" fill-rule="evenodd">
        <g id="eurasia-2">
            <g id="Symbols">
                <g id="Logo">
                    <g id="Group">
                        <g id="Group-3">
                            <path d="M44.025,98.082 C46.046,98.875 48.201,99.275 50.359,99.277 C52.517,99.28 54.676,98.886 56.705,98.092 C80.024,84.453 99.147,50.854 100.378,23.605 C99.029,1.409 66.345,-0.033 50.373,0.068 C34.727,-0.032 1.685,1.893 0.368,23.611 C1.603,50.851 20.716,84.442 44.025,98.082 L4.17884792,35.7559381" id="Fill-643" fill="#0098D1"></path>
                            <path d="M26.4800842,49 C29.7815348,47.3831207 37.1188523,44.3209502 39.0397178,43.569266 C60.0344203,31.2897193 91.2480272,21.9116949 93.3795899,21.0981985 C95.5111525,20.284702 95.5844835,18.7291561 95.5844835,15.9640335 C91.0284755,1.67345338 64.7807708,1.9085797 49.6599901,2.00419696 C34.8478354,1.9095264 3.56679134,3.73193455 2.31998016,24.2924852 C2.59728865,27.8832475 2.21141994,27.5630095 3.5393891,33.8772862 C4.86735826,40.1915629 6.02505459,46.3562655 12.5755841,59.5801197 C14.488876,60.3308572 23.3564017,50.5298176 26.4800842,49 L26.4800842,49 Z" id="Fill-643" fill="url(#linearGradient-1)" opacity="0.499943388"></path>
                            <path d="M50.306,76.576 C60.815,64.852 69.017,55.703 79.527,43.979 C82.779,40.351 84.968,38.401 81.908,34.612 L75.541,26.728 L59.925,22.622 L40.454,22.622 L24.84,26.728 C22.445,29.69 20.741,31.801 18.348,34.762 C16.078,37.569 18.169,40.878 20.575,43.562 L50.074,76.576 L50.189,76.711 L50.306,76.576 L50.306,76.576 Z" id="Fill-963" fill="#FEFEFE"></path>
                            <path d="M75.163,28.091 C71.823,30.46 67.647,31.492 63.404,32.406 C65.606,32.207 66.752,32.104 68.956,31.903 C70.39,31.772 71.493,31.591 72.499,32.627 L77.36,37.614 C76.373,35.793 75.388,33.97 74.403,32.146 C73.788,31.007 73.768,31.041 74.322,29.871 C74.602,29.278 74.882,28.685 75.163,28.091" id="Fill-964" fill="#0098D1"></path>
                            <path d="M23.973,42.352 C26.573,42.94 26.984,43.032 29.586,43.619 C31.29,44.004 33.99,43.637 34.758,42.041 L37.539,36.265 C37.298,40.21 35.209,44.982 39.66,45.892 L47.842,48.799 C44.281,48.515 41.021,47.542 39.542,48.399 C37.801,49.405 38.847,51.072 39.368,52.303 L46.657,69.513 C42.026,60.888 37.982,54.244 32.165,48.594 C29.802,46.299 27.032,44.687 23.973,42.352" id="Fill-965" fill="#0098D1"></path>
                            <path d="M25.216,28.091 C28.108,30.226 32.517,31.335 36.977,32.406 C34.722,32.202 32.466,31.997 30.213,31.793 C28.811,31.666 28.816,31.666 27.825,32.682 L23.019,37.614 C24.072,35.665 25.125,33.717 26.178,31.767 C26.603,30.984 26.591,31.016 26.215,30.21 C25.882,29.504 25.548,28.798 25.216,28.091" id="Fill-966" fill="#0098D1"></path>
                            <path d="M50.281,43.958 L50.179,44.409 L50.1,43.958 C49.667,41.906 49.236,39.852 48.805,37.799 C48.301,35.387 48.493,35.437 46.185,34.723 C44.161,34.098 42.139,33.473 40.116,32.848 C46.832,34.03 53.545,34.03 60.265,32.848 C50.979,35.717 52.312,34.274 50.281,43.958" id="Fill-967" fill="#0098D1"></path>
                            <path d="M77.149,42.352 C74.549,42.94 74.138,43.032 71.536,43.619 C69.831,44.004 67.132,43.637 66.364,42.041 L63.583,36.265 C63.824,40.21 65.913,44.982 61.462,45.892 L53.28,48.799 C56.84,48.515 60.101,47.542 61.58,48.399 C63.321,49.405 62.275,51.072 61.754,52.303 L54.465,69.513 C59.096,60.888 63.14,54.244 68.957,48.594 C71.32,46.299 74.09,44.687 77.149,42.352" id="Fill-968" fill="#0098D1"></path>
                            <path d="M135.756,97.092 C135.4,97.188 135.067,97.265 134.757,97.324 C134.45,97.386 134.148,97.429 133.848,97.454 C133.552,97.482 133.242,97.495 132.917,97.495 C132.097,97.493 131.37,97.407 130.728,97.238 C130.088,97.065 129.53,96.826 129.062,96.511 C128.592,96.198 128.208,95.826 127.898,95.394 C127.592,94.963 127.364,94.485 127.215,93.962 C127.066,93.437 126.992,92.882 126.992,92.291 C126.995,91.696 127.068,91.146 127.213,90.645 C127.358,90.146 127.557,89.699 127.81,89.302 C128.063,88.907 128.357,88.568 128.693,88.285 C129.018,88.009 129.389,87.781 129.812,87.601 C130.234,87.418 130.693,87.284 131.189,87.193 C131.685,87.103 132.208,87.058 132.759,87.058 C132.946,87.057 133.181,87.066 133.465,87.088 C133.748,87.115 134.08,87.162 134.46,87.239 C134.839,87.313 135.267,87.425 135.742,87.578 L135.527,89.754 C135.316,89.642 135.077,89.531 134.805,89.423 C134.532,89.317 134.236,89.229 133.916,89.157 C133.596,89.086 133.265,89.049 132.917,89.049 C132.557,89.049 132.235,89.092 131.952,89.172 C131.67,89.253 131.422,89.361 131.208,89.489 C130.998,89.621 130.818,89.762 130.668,89.912 C130.492,90.086 130.339,90.296 130.202,90.537 C130.064,90.779 129.959,91.049 129.88,91.35 C129.801,91.651 129.762,91.974 129.761,92.321 C129.762,92.844 129.846,93.303 130.014,93.7 C130.184,94.096 130.418,94.43 130.722,94.696 C131.024,94.965 131.376,95.167 131.785,95.302 C132.191,95.438 132.638,95.506 133.118,95.506 C133.371,95.506 133.637,95.484 133.919,95.446 C134.202,95.405 134.488,95.345 134.78,95.269 C135.067,95.191 135.35,95.097 135.627,94.987 L135.756,97.092 L135.756,97.092 Z M364.22,89.221 L364.22,87.231 L366.902,87.231 L366.902,97.323 L364.22,97.323 L364.22,89.221 L364.22,89.221 Z M352.646,97.092 C352.287,97.188 351.957,97.265 351.647,97.324 C351.34,97.386 351.036,97.429 350.739,97.454 C350.44,97.482 350.13,97.495 349.804,97.495 C348.986,97.493 348.258,97.407 347.618,97.238 C346.978,97.065 346.422,96.826 345.952,96.511 C345.479,96.198 345.095,95.826 344.786,95.394 C344.482,94.963 344.254,94.485 344.104,93.962 C343.957,93.437 343.882,92.882 343.882,92.291 C343.883,91.696 343.958,91.146 344.101,90.645 C344.247,90.146 344.445,89.699 344.7,89.302 C344.952,88.907 345.248,88.568 345.582,88.285 C345.907,88.009 346.279,87.781 346.699,87.601 C347.122,87.418 347.58,87.284 348.078,87.193 C348.573,87.103 349.098,87.058 349.647,87.058 C349.835,87.057 350.07,87.066 350.353,87.088 C350.637,87.115 350.967,87.162 351.347,87.239 C351.727,87.313 352.155,87.425 352.631,87.578 L352.415,89.754 C352.207,89.642 351.966,89.531 351.694,89.423 C351.42,89.317 351.124,89.229 350.805,89.157 C350.486,89.086 350.155,89.049 349.804,89.049 C349.445,89.049 349.123,89.092 348.842,89.172 C348.559,89.253 348.31,89.361 348.097,89.489 C347.887,89.621 347.705,89.762 347.555,89.912 C347.381,90.086 347.228,90.296 347.092,90.537 C346.953,90.779 346.849,91.049 346.768,91.35 C346.691,91.651 346.651,91.974 346.648,92.321 C346.651,92.844 346.735,93.303 346.904,93.7 C347.073,94.096 347.305,94.43 347.61,94.696 C347.912,94.965 348.264,95.167 348.673,95.302 C349.081,95.438 349.524,95.506 350.007,95.506 C350.259,95.506 350.526,95.484 350.808,95.446 C351.09,95.405 351.377,95.345 351.669,95.269 C351.957,95.191 352.239,95.097 352.515,94.987 L352.646,97.092 L352.646,97.092 Z M357.763,92.666 L358.453,92.666 C358.567,92.664 358.699,92.674 358.849,92.69 C358.998,92.707 359.146,92.743 359.3,92.796 C359.454,92.853 359.596,92.933 359.723,93.042 C359.831,93.14 359.915,93.247 359.97,93.368 C360.028,93.486 360.067,93.606 360.086,93.726 C360.105,93.845 360.115,93.952 360.112,94.05 C360.115,94.18 360.102,94.306 360.078,94.432 C360.054,94.556 360.009,94.677 359.94,94.794 C359.869,94.908 359.769,95.016 359.636,95.116 C359.505,95.211 359.365,95.281 359.218,95.323 C359.072,95.367 358.929,95.394 358.796,95.405 C358.661,95.418 358.548,95.422 358.453,95.42 L357.763,95.42 L357.763,92.666 L357.763,92.666 Z M358.281,97.323 C358.546,97.324 358.838,97.319 359.159,97.301 C359.484,97.284 359.812,97.246 360.151,97.181 C360.487,97.115 360.814,97.015 361.127,96.875 C361.441,96.736 361.722,96.545 361.971,96.3 C362.224,96.059 362.421,95.75 362.568,95.374 C362.714,95 362.791,94.543 362.794,94.008 C362.799,93.638 362.743,93.273 362.63,92.918 C362.518,92.564 362.321,92.228 362.043,91.917 C361.791,91.652 361.515,91.443 361.218,91.288 C360.917,91.132 360.616,91.016 360.314,90.941 C360.012,90.864 359.729,90.816 359.464,90.795 C359.202,90.771 358.981,90.76 358.8,90.763 L357.763,90.763 L357.763,87.231 L355.082,87.231 L355.082,97.323 L358.281,97.323 L358.281,97.323 Z M248.597,87.231 L251.28,87.231 L251.28,91.355 L251.309,91.355 L254.337,87.231 L257.565,87.231 L253.846,91.931 L257.854,97.323 L254.437,97.323 L251.309,92.739 L251.28,92.739 L251.28,97.323 L248.597,97.323 L248.597,87.231 L248.597,87.231 Z M264.693,89.049 C264.359,89.049 264.067,89.106 263.823,89.213 C263.579,89.324 263.374,89.47 263.206,89.653 C263.037,89.838 262.904,90.044 262.797,90.273 C262.691,90.501 262.613,90.737 262.557,90.977 C262.502,91.22 262.465,91.453 262.445,91.676 C262.424,91.902 262.414,92.101 262.415,92.276 C262.414,92.452 262.424,92.652 262.445,92.876 C262.465,93.101 262.502,93.335 262.557,93.575 C262.613,93.817 262.691,94.052 262.797,94.281 C262.904,94.509 263.037,94.715 263.206,94.901 C263.374,95.084 263.579,95.23 263.823,95.338 C264.067,95.448 264.359,95.505 264.693,95.506 C265.033,95.505 265.323,95.448 265.568,95.338 C265.812,95.23 266.019,95.084 266.188,94.901 C266.356,94.715 266.491,94.509 266.594,94.281 C266.7,94.052 266.778,93.817 266.831,93.575 C266.887,93.335 266.925,93.101 266.944,92.876 C266.963,92.652 266.973,92.452 266.97,92.276 C266.973,92.101 266.963,91.902 266.944,91.676 C266.925,91.453 266.887,91.22 266.831,90.977 C266.778,90.737 266.7,90.501 266.594,90.273 C266.491,90.044 266.356,89.838 266.188,89.653 C266.019,89.47 265.812,89.324 265.568,89.213 C265.323,89.106 265.033,89.049 264.693,89.049 L264.693,89.049 Z M264.693,87.058 C264.912,87.057 265.171,87.068 265.467,87.095 C265.764,87.124 266.08,87.181 266.419,87.268 C266.755,87.357 267.096,87.492 267.437,87.673 C267.779,87.854 268.103,88.095 268.412,88.399 C268.706,88.697 268.941,89.019 269.12,89.365 C269.297,89.712 269.429,90.063 269.52,90.412 C269.61,90.765 269.67,91.103 269.699,91.425 C269.728,91.743 269.741,92.029 269.739,92.276 C269.741,92.524 269.728,92.812 269.699,93.129 C269.67,93.448 269.61,93.788 269.52,94.14 C269.429,94.493 269.297,94.843 269.12,95.189 C268.941,95.536 268.706,95.856 268.412,96.156 C268.103,96.458 267.779,96.699 267.437,96.881 C267.096,97.061 266.755,97.195 266.419,97.284 C266.08,97.373 265.764,97.43 265.467,97.459 C265.171,97.487 264.912,97.498 264.693,97.495 C264.477,97.498 264.22,97.487 263.922,97.459 C263.623,97.43 263.304,97.373 262.964,97.284 C262.621,97.195 262.281,97.061 261.94,96.881 C261.598,96.699 261.275,96.458 260.974,96.156 C260.684,95.851 260.45,95.528 260.275,95.183 C260.097,94.837 259.964,94.488 259.874,94.134 C259.783,93.785 259.722,93.448 259.691,93.127 C259.661,92.808 259.645,92.524 259.648,92.276 C259.645,92.029 259.661,91.743 259.688,91.425 C259.717,91.103 259.778,90.765 259.868,90.412 C259.958,90.063 260.09,89.712 260.269,89.365 C260.445,89.019 260.682,88.697 260.974,88.399 C261.28,88.095 261.603,87.852 261.947,87.67 C262.289,87.487 262.629,87.353 262.968,87.263 C263.31,87.174 263.628,87.117 263.926,87.088 C264.22,87.063 264.477,87.05 264.693,87.058 L264.693,87.058 Z M272.253,87.231 L276.478,87.231 L278.611,93.935 L278.64,93.935 L280.875,87.231 L284.939,87.231 L284.939,97.323 L282.316,97.323 L282.316,89.568 L282.331,89.568 L279.765,97.323 L277.298,97.323 L274.849,89.568 L274.82,89.568 L274.82,97.323 L272.253,97.323 L272.253,87.231 L272.253,87.231 Z M287.829,87.231 L296.22,87.231 L296.22,97.323 L293.538,97.323 L293.538,89.134 L290.511,89.134 L290.511,97.323 L287.829,97.323 L287.829,87.231 L287.829,87.231 Z M303.493,89.308 L303.463,89.308 L302.164,93.257 L304.688,93.257 L303.493,89.308 L303.493,89.308 Z M301.848,87.231 L305.135,87.231 L309.012,97.323 L306.072,97.323 L305.323,95.174 L301.545,95.174 L300.753,97.323 L298.028,97.323 L301.848,87.231 L301.848,87.231 Z M310.82,87.231 L313.504,87.231 L313.504,91.096 L316.673,91.096 L316.673,87.231 L319.355,87.231 L319.355,97.323 L316.673,97.323 L316.673,92.999 L313.504,92.999 L313.504,97.323 L310.82,97.323 L310.82,87.231 L310.82,87.231 Z M322.246,87.231 L324.927,87.231 L324.927,94.036 L328.039,87.231 L331.255,87.231 L331.255,97.323 L328.574,97.323 L328.574,90.519 L325.459,97.323 L322.246,97.323 L322.246,87.231 L322.246,87.231 Z M338.514,89.134 C338.42,89.132 338.307,89.138 338.171,89.15 C338.038,89.162 337.896,89.187 337.748,89.23 C337.602,89.274 337.462,89.343 337.331,89.438 C337.199,89.538 337.098,89.646 337.028,89.762 C336.957,89.878 336.913,89.997 336.889,90.122 C336.864,90.248 336.853,90.375 336.856,90.504 C336.853,90.594 336.863,90.695 336.881,90.814 C336.899,90.933 336.94,91.052 336.997,91.174 C337.053,91.297 337.137,91.41 337.244,91.512 C337.376,91.621 337.518,91.702 337.672,91.758 C337.826,91.81 337.977,91.848 338.125,91.865 C338.27,91.881 338.401,91.889 338.514,91.888 L339.206,91.888 L339.206,89.134 L338.514,89.134 L338.514,89.134 Z M341.885,97.323 L339.206,97.323 L339.206,93.791 L338.325,93.791 L336.568,97.323 L333.57,97.323 L335.975,93.127 C335.594,93.021 335.281,92.873 335.044,92.676 C334.807,92.481 334.622,92.258 334.497,92.011 C334.371,91.765 334.286,91.512 334.239,91.258 C334.194,91.003 334.171,90.765 334.174,90.548 C334.176,90.192 334.211,89.878 334.278,89.601 C334.342,89.327 334.431,89.086 334.539,88.882 C334.65,88.677 334.766,88.503 334.897,88.359 C335.026,88.212 335.157,88.092 335.284,87.994 C335.366,87.933 335.483,87.859 335.642,87.773 C335.8,87.688 336.01,87.605 336.271,87.522 C336.533,87.437 336.863,87.372 337.258,87.315 C337.652,87.263 338.132,87.235 338.685,87.231 L341.885,87.231 L341.885,97.323 L341.885,97.323 Z M142.38,89.308 L142.352,89.308 L141.056,93.257 L143.578,93.257 L142.38,89.308 L142.38,89.308 Z M140.737,87.231 L144.024,87.231 L147.903,97.323 L144.96,97.323 L144.209,95.174 L140.434,95.174 L139.643,97.323 L136.917,97.323 L140.737,87.231 L140.737,87.231 Z M149.71,87.231 L152.392,87.231 L152.392,91.355 L152.421,91.355 L155.449,87.231 L158.678,87.231 L154.959,91.931 L157.553,95.42 L159.931,95.42 L159.931,99.672 L157.336,99.672 L157.336,97.323 L155.548,97.323 L152.421,92.739 L152.392,92.739 L152.392,97.323 L149.71,97.323 L149.71,87.231 L149.71,87.231 Z M163.657,89.221 L161.178,89.221 L161.178,87.231 L168.818,87.231 L168.818,89.221 L166.338,89.221 L166.338,97.323 L163.657,97.323 L163.657,89.221 L163.657,89.221 Z M175.341,89.308 L175.312,89.308 L174.015,93.257 L176.537,93.257 L175.341,89.308 L175.341,89.308 Z M173.696,87.231 L176.983,87.231 L180.863,97.323 L177.921,97.323 L177.171,95.174 L173.395,95.174 L172.602,97.323 L169.876,97.323 L173.696,87.231 L173.696,87.231 Z M182.67,87.231 L185.352,87.231 L185.352,91.096 L188.523,91.096 L188.523,87.231 L191.205,87.231 L191.205,97.323 L188.523,97.323 L188.523,92.999 L185.352,92.999 L185.352,97.323 L182.67,97.323 L182.67,87.231 L182.67,87.231 Z M197.728,89.134 L197.728,89.869 C197.729,90.195 197.726,90.551 197.714,90.935 C197.701,91.318 197.665,91.727 197.611,92.164 C197.557,92.599 197.465,93.061 197.338,93.547 C197.271,93.798 197.202,94.033 197.124,94.246 C197.049,94.462 196.971,94.663 196.884,94.853 C196.797,95.045 196.704,95.234 196.605,95.42 L200.149,95.42 L200.149,89.134 L197.728,89.134 L197.728,89.134 Z M194.037,95.42 C194.136,95.23 194.233,95.021 194.338,94.797 C194.438,94.567 194.538,94.336 194.635,94.099 C194.73,93.863 194.815,93.634 194.888,93.415 C194.978,93.111 195.058,92.768 195.125,92.385 C195.193,91.999 195.243,91.559 195.278,91.067 C195.314,90.574 195.334,90.012 195.334,89.381 L195.334,87.231 L202.83,87.231 L202.83,95.42 L204.042,95.42 L204.042,99.672 L201.449,99.672 L201.449,97.323 L195.752,97.323 L195.752,99.672 L193.157,99.672 L193.157,95.42 L194.037,95.42 L194.037,95.42 Z M215.35,97.323 L218.031,97.323 L218.031,87.231 L215.35,87.231 L215.35,97.323 Z M208.746,95.42 L209.498,95.42 C209.617,95.422 209.76,95.42 209.919,95.418 C210.08,95.412 210.247,95.394 210.418,95.357 C210.588,95.323 210.744,95.262 210.889,95.169 C211.038,95.081 211.155,94.951 211.245,94.782 C211.338,94.614 211.382,94.394 211.386,94.122 C211.382,93.851 211.326,93.632 211.216,93.471 C211.108,93.307 210.965,93.186 210.789,93.106 C210.614,93.024 210.424,92.971 210.225,92.948 C210.023,92.921 209.828,92.909 209.641,92.912 L208.746,92.912 L208.746,95.42 L208.746,95.42 Z M206.066,87.231 L208.746,87.231 L208.746,91.008 L209.959,91.008 C210.169,91.005 210.413,91.008 210.695,91.016 C210.973,91.023 211.269,91.052 211.575,91.103 C211.883,91.153 212.182,91.241 212.478,91.364 C212.772,91.49 213.038,91.671 213.277,91.904 C213.515,92.14 213.706,92.444 213.848,92.821 C213.99,93.197 214.065,93.659 214.066,94.208 C214.066,95.232 213.69,96.026 212.943,96.587 C212.722,96.756 212.486,96.889 212.236,96.988 C211.989,97.086 211.739,97.162 211.489,97.21 C211.238,97.258 211.001,97.289 210.777,97.303 C210.549,97.319 210.351,97.324 210.172,97.323 L206.066,97.323 L206.066,87.231 L206.066,87.231 Z M223.602,91.888 L224.294,91.888 C224.408,91.889 224.539,91.881 224.688,91.865 C224.837,91.848 224.987,91.81 225.142,91.758 C225.294,91.702 225.438,91.621 225.563,91.512 C225.671,91.415 225.755,91.306 225.81,91.186 C225.868,91.068 225.908,90.948 225.924,90.829 C225.945,90.71 225.956,90.602 225.952,90.504 C225.956,90.375 225.942,90.248 225.918,90.122 C225.896,89.997 225.848,89.878 225.779,89.762 C225.707,89.646 225.608,89.538 225.477,89.438 C225.345,89.343 225.206,89.274 225.057,89.23 C224.911,89.187 224.772,89.162 224.637,89.15 C224.501,89.138 224.387,89.132 224.294,89.134 L223.602,89.134 L223.602,91.888 L223.602,91.888 Z M224.121,87.231 C224.386,87.23 224.679,87.236 225,87.253 C225.323,87.268 225.651,87.307 225.991,87.372 C226.328,87.437 226.654,87.537 226.966,87.679 C227.28,87.818 227.562,88.009 227.812,88.254 C228.065,88.497 228.261,88.805 228.408,89.18 C228.554,89.555 228.63,90.012 228.634,90.548 C228.638,90.916 228.583,91.279 228.469,91.636 C228.358,91.991 228.162,92.325 227.884,92.638 C227.631,92.902 227.356,93.111 227.059,93.265 C226.757,93.422 226.456,93.54 226.154,93.613 C225.852,93.692 225.567,93.738 225.306,93.759 C225.042,93.785 224.821,93.792 224.64,93.791 L223.602,93.791 L223.602,97.323 L220.921,97.323 L220.921,87.231 L224.121,87.231 L224.121,87.231 Z M233.009,87.231 L234.58,90.619 L235.229,92.247 L235.271,92.247 C235.368,91.962 235.452,91.719 235.524,91.512 C235.594,91.309 235.655,91.132 235.713,90.977 C235.769,90.823 235.822,90.681 235.874,90.548 C235.926,90.412 235.979,90.273 236.035,90.129 L237.275,87.231 L240.072,87.231 L236.121,95.592 C236.074,95.686 236.002,95.8 235.918,95.932 C235.834,96.066 235.74,96.204 235.633,96.352 C235.524,96.496 235.412,96.633 235.291,96.762 C235.171,96.89 235.047,96.996 234.924,97.077 C234.738,97.195 234.548,97.287 234.357,97.346 C234.165,97.407 233.971,97.447 233.78,97.466 C233.588,97.488 233.397,97.498 233.21,97.495 C232.989,97.499 232.74,97.482 232.466,97.441 C232.191,97.4 231.882,97.31 231.538,97.177 L231.725,95.363 C231.891,95.427 232.053,95.48 232.208,95.519 C232.367,95.556 232.528,95.578 232.691,95.578 C232.835,95.578 232.972,95.556 233.113,95.513 C233.253,95.47 233.379,95.402 233.49,95.312 C233.605,95.22 233.692,95.103 233.759,94.958 L233.932,94.571 L229.924,87.231 L233.009,87.231 L233.009,87.231 Z" id="Fill-1" fill="#FFFFFF"></path>
                            <path d="M349.217,33.333 C344.479,33.812 339.259,36.223 339.301,41.749 C339.337,46.721 342.928,48.75 347.039,50.137 C347.452,50.288 348.368,50.706 347.651,52.164 C346.19,54.869 345.55,55.955 343.593,58.81 C342.462,60.64 340.343,62.632 338.925,63.334 C338.502,63.542 338.13,63.502 337.744,63.68 C337.342,63.866 337.082,64.258 337.085,64.763 C337.089,65.467 337.665,65.998 338.358,65.959 L345.24,65.959 C345.318,65.964 345.395,65.966 345.474,65.966 C347.615,65.916 348.426,64.764 349.486,63.248 L355.708,52.98 C356.367,51.893 357.66,52.172 357.666,53.598 C357.687,57.783 357.705,60.85 357.705,65.026 L357.705,65.052 C357.705,65.547 358.108,65.951 358.604,65.951 L358.639,65.949 L358.639,65.951 L365.775,65.951 L365.775,65.95 L365.783,65.951 C366.275,65.951 366.677,65.548 366.677,65.052 L366.676,65.026 L366.677,65.026 C366.677,57.106 366.639,47.641 366.639,39.725 C366.639,36.688 366.825,36.189 368.994,35.392 C369.409,35.221 369.705,34.824 369.729,34.349 C369.751,33.897 369.48,33.442 369.071,33.222 C368.883,33.122 368.492,33.018 368.267,32.998 C362.775,32.914 354.215,32.828 349.217,33.333 L349.217,33.333 Z M357.918,38.158 C357.923,40.751 357.906,44.968 357.91,47.56 C357.83,48.674 356.933,48.854 356.542,48.885 L356.057,48.885 C354.046,48.885 352.363,48.535 351.039,47.604 C349.145,46.246 348.378,44.213 348.42,42.222 C348.503,38.377 350.539,36.03 354.873,36.03 C356.198,36.03 357.166,36.344 357.46,36.54 C357.754,36.736 357.918,37.275 357.918,38.158 L357.918,38.158 Z M290.863,34.547 C293.108,36.078 294.231,38.174 294.231,40.839 C294.231,41.727 294.02,42.518 293.601,43.208 C293.182,43.9 292.688,44.455 292.121,44.873 C291.553,45.293 290.748,45.772 289.678,46.243 C289.173,46.465 288.624,46.681 288.033,46.89 C287.296,47.131 287.215,47.769 287.948,47.983 C290.013,48.496 291.737,49.285 293.119,50.352 C294.946,51.758 295.86,53.743 295.86,56.31 C295.86,59.517 294.367,62.034 291.381,63.862 C288.395,65.687 284.607,66.6 280.017,66.6 C277.748,66.6 275.649,66.303 273.726,65.711 C271.8,65.119 270.296,64.33 269.21,63.343 C268.519,62.751 268.026,62.121 267.731,61.455 C267.434,60.788 267.285,60.086 267.285,59.345 C267.285,58.457 267.668,57.606 268.433,56.791 C269.198,55.977 270.073,55.571 271.061,55.571 C272.542,55.571 273.8,56.656 274.835,58.828 C275.527,60.357 276.378,61.541 277.39,62.381 C278.402,63.22 279.475,63.639 280.609,63.639 C282.09,63.639 283.35,62.997 284.385,61.715 C285.421,60.432 285.94,58.852 285.94,56.977 C285.94,54.854 285.514,53.155 284.682,51.87 C282.044,47.792 281.132,51.705 278.153,49.722 C277.635,49.378 277.375,48.785 277.375,47.945 C277.375,47.156 277.66,46.575 278.227,46.205 C280.841,44.503 282.036,47.148 283.793,44.985 C284.522,44.088 284.903,42.839 284.903,41.209 C284.903,39.482 284.409,38.077 283.422,36.99 C281.423,34.789 278.834,35.231 276.48,36.677 C274.48,37.906 273.146,40.034 272.046,42.937 C271.84,43.46 271.325,43.834 270.725,43.834 C270.022,43.834 269.43,43.303 269.333,42.625 C269.309,42.441 269.325,42.272 269.339,42.092 C269.407,41.3 269.502,40.419 269.625,39.454 C269.854,37.659 270.076,36.411 270.288,35.711 L270.29,35.707 C270.359,35.484 270.49,35.289 270.664,35.141 L270.665,35.138 C271.502,34.404 272.711,33.77 274.289,33.236 C279.055,31.625 286.838,31.806 290.863,34.547 L290.863,34.547 Z M262.121,41.506 L262.121,58.05 C262.121,59.529 262.306,60.604 262.677,61.269 C262.99,61.834 263.382,62.158 263.855,62.243 C264.616,62.367 265.198,63.028 265.198,63.823 C265.198,64.417 264.872,64.934 264.391,65.21 L264.393,65.212 C263.041,65.991 261.428,66.584 259.751,66.6 C258.228,66.6 256.946,66.234 255.922,65.553 C254.756,64.778 254.175,63.436 252.554,63.436 C251.147,63.436 250.199,64.617 249.14,65.358 C248.028,66.134 246.913,66.6 245.133,66.6 C242.431,66.6 240.21,65.649 238.459,63.75 C236.719,61.85 235.842,59.764 235.842,57.495 C235.842,53.794 237.743,51.177 241.542,49.648 C243.664,48.809 245.793,47.96 247.908,47.057 C249.485,46.385 250.77,45.798 251.758,45.299 L251.768,45.296 L251.769,45.295 C252.725,44.857 253.388,43.894 253.388,42.776 L253.386,42.669 L253.386,41.727 C253.386,38.358 252.377,35.508 249.448,35.396 C244.228,35.194 243.789,39.697 243.14,43.046 C242.898,44.292 241.841,44.985 240.728,44.985 C239.889,44.985 238.997,44.668 238.063,44.023 C236.925,43.237 236.92,42.393 236.92,41.506 C236.92,36.256 242.644,32.162 249.458,32.253 C257.275,32.357 262.121,34.203 262.121,41.506 L262.121,41.506 Z M253.386,55.561 L253.381,49.942 L253.382,49.906 L253.382,49.871 C253.382,49.086 252.746,48.448 251.96,48.448 C251.683,48.448 251.427,48.525 251.208,48.663 L248.42,50.244 C245.781,51.741 244.395,54.142 244.448,56.636 C244.501,59.103 246.455,61.112 248.903,61.112 C250.822,61.112 252.461,59.901 253.098,58.202 C253.426,57.324 253.386,56.473 253.386,55.561 L253.386,55.561 Z M177.412,49.879 C177.171,49.875 176.933,49.869 176.693,49.863 C175.477,49.959 175.249,50.765 175.268,51.34 L175.249,58.253 C175.249,60.226 175.576,61.596 176.211,62.341 C176.711,62.927 177.544,63.229 178.728,63.229 C180.653,63.229 182.294,62.624 183.65,61.415 C185.008,60.207 185.686,58.491 185.686,56.271 C185.686,51.928 182.938,49.879 177.412,49.879 L177.412,49.879 Z M175.232,37.913 C175.227,40.523 175.221,43.032 175.217,45.64 C175.298,46.762 176.201,46.943 176.594,46.975 L177.083,46.975 C179.106,46.975 180.8,46.622 182.133,45.685 C183.465,44.747 184.132,43.366 184.132,41.54 C184.132,39.664 183.587,38.27 182.502,37.357 C181.418,36.445 179.962,35.989 178.136,35.989 C176.802,35.989 175.988,36.087 175.693,36.283 C175.397,36.481 175.232,37.025 175.232,37.913 L175.232,37.913 Z M177.798,32.561 C182.231,32.219 186.66,32.692 190.681,35.134 C192.58,36.294 193.53,38.157 193.53,40.723 C193.53,42.845 192.691,44.548 191.014,45.831 C190.284,46.369 189.382,46.856 188.312,47.292 C187.711,47.536 187.745,47.744 187.736,47.854 C187.734,47.925 187.665,48.208 188.273,48.366 C190.052,48.83 191.536,49.538 192.716,50.494 C194.591,52.024 195.529,53.975 195.529,56.342 C195.529,59.796 193.873,62.307 190.57,63.893 C187.704,65.268 183.61,65.966 178.281,65.966 L167.297,65.966 C166.803,65.966 166.398,65.561 166.398,65.062 L166.4,65.034 L166.398,65.034 C166.398,57.14 166.383,49.282 166.383,41.39 C166.346,38.311 166.415,37.997 164.057,36.932 C163.638,36.759 163.341,36.36 163.317,35.882 C163.294,35.427 163.567,34.969 163.98,34.748 C164.289,34.577 164.706,34.553 165.167,34.459 C169.324,33.616 173.727,32.861 177.798,32.561 L177.798,32.561 Z M322.367,35.056 C322.367,34.817 322.347,34.461 322.449,34.233 C322.537,34.041 322.697,33.883 322.9,33.796 C323.141,33.69 323.524,33.693 323.784,33.665 C324.073,33.632 324.368,33.595 324.67,33.559 C326.533,33.326 328.064,33.129 329.243,32.969 C329.602,32.922 330.148,32.804 330.519,32.804 C330.89,32.804 331.211,33.031 331.348,33.357 C331.442,33.582 331.417,33.834 331.417,34.071 C331.417,42.49 331.442,50.886 331.442,59.318 C331.502,61.321 331.913,63.428 334.239,63.549 L334.285,63.549 C334.347,63.549 334.407,63.552 334.468,63.561 L334.514,63.564 L334.514,63.571 C335.071,63.678 335.492,64.128 335.492,64.756 C335.492,65.383 334.95,66.001 334.285,65.964 L334.19,65.959 L327.086,65.959 C327.006,65.964 326.927,65.966 326.846,65.966 C325.693,65.966 324.641,65.522 323.846,64.794 C323.111,64.213 322.764,63.258 322.205,63.049 C321.536,62.8 320.475,63.133 318.892,64.167 C317.658,64.957 315.771,65.737 314.786,66.082 C313.799,66.426 312.737,66.6 311.602,66.6 C308.542,66.6 306.186,65.698 304.533,63.897 C302.879,62.096 302.053,59.716 302.053,56.754 C302.053,51.111 302.009,45.531 302.009,39.926 C302.009,38.593 301.872,37.716 301.603,37.298 C301.332,36.88 300.702,36.595 299.715,36.447 C299.333,36.385 298.804,36.366 298.44,36.192 C298.031,35.997 297.757,35.581 297.759,35.103 C297.762,34.648 298.059,34.205 298.483,34.007 C298.789,33.864 299.191,33.895 299.52,33.88 C300.936,33.812 302.536,33.706 304.304,33.487 C306.168,33.255 307.699,33.057 308.878,32.897 C309.237,32.849 309.782,32.731 310.153,32.731 C310.524,32.731 310.845,32.959 310.982,33.284 C311.075,33.508 311.051,33.761 311.051,33.999 C311.051,40.671 311.084,48.224 311.084,54.903 C311.084,56.976 311.54,58.507 312.453,59.493 C313.365,60.48 314.588,60.974 316.118,60.974 C317.391,60.974 318.694,60.602 320.026,59.859 C321.658,58.967 322.369,57.369 322.398,55.981 C322.371,49.01 322.354,42.027 322.367,35.056 L322.367,35.056 Z M141.347,18.262 C145.254,18.263 148.851,18.201 151.78,18.206 C153.917,18.209 155.7,18.473 156.985,18.603 C156.998,18.604 157.009,18.606 157.019,18.612 C157.47,18.659 157.824,19.038 157.83,19.496 L157.83,19.508 L157.83,19.512 L158.348,26.648 C158.378,27.041 158.404,27.381 158.221,27.757 C157.96,28.297 157.406,28.676 156.766,28.677 C156.167,28.675 155.637,28.334 155.362,27.847 C155.271,27.683 155.22,27.523 155.164,27.347 C154.588,25.53 153.926,24.238 153.19,23.487 C152.108,22.378 149.436,21.083 145.196,21.083 L142.309,21.083 C140.883,21.083 140.027,21.194 139.755,21.416 C139.485,21.638 139.349,22.395 139.349,23.673 L139.349,35.618 C139.349,36.195 139.292,36.841 139.462,37.401 C139.733,38.295 140.457,39.002 141.377,39.246 C141.863,39.374 142.393,39.337 142.894,39.337 L144.753,39.337 C147.911,39.337 149.823,39.054 150.489,38.485 C151.024,38.031 151.469,36.787 151.827,34.755 C151.867,34.531 151.894,34.263 151.975,34.048 C152.178,33.51 152.701,33.122 153.305,33.122 C153.936,33.122 154.472,33.53 154.663,34.089 L154.66,48.383 C154.465,48.926 153.935,49.327 153.319,49.33 C152.764,49.328 152.28,49.006 152.046,48.545 C151.914,48.284 151.892,47.989 151.844,47.705 C151.509,45.754 151.058,44.53 150.489,44.038 C149.774,43.421 147.861,43.113 144.753,43.113 L142.725,43.113 C142.21,43.113 141.722,43.091 141.22,43.261 C140.369,43.548 139.703,44.242 139.451,45.112 C139.314,45.592 139.349,46.082 139.349,46.574 L139.251,54.922 C139.219,57.732 139.365,59.633 139.584,60.594 C139.804,61.555 140.302,62.259 141.102,62.629 C141.682,62.898 142.423,63.037 143.285,63.111 C144.148,63.183 145.522,63.267 147.393,63.221 C153.223,63.079 155.85,61.688 158.19,55.655 C158.449,55.091 158.638,54.107 159.923,54.078 C160.695,54.078 161.344,54.618 161.511,55.334 C161.61,55.758 161.492,56.183 161.415,56.599 C161.227,57.609 161.016,58.699 160.782,59.86 C160.326,62.124 159.934,63.797 159.618,64.896 C159.616,64.904 159.609,64.911 159.605,64.919 C159.49,65.245 159.194,65.487 158.838,65.522 L158.824,65.525 C157.68,65.81 156.199,65.948 154.324,65.951 C150.981,65.958 146.637,66.105 141.874,66.131 C136.766,66.16 132.044,66.222 128.546,66.169 C126.583,66.138 124.947,65.854 123.897,65.689 L123.904,65.676 C123.809,65.66 123.713,65.635 123.615,65.591 C123.197,65.398 122.909,64.981 122.911,64.493 C122.911,63.979 123.242,63.534 123.701,63.365 C123.991,63.259 124.361,63.293 124.664,63.269 C126.63,63.111 127.935,62.649 128.499,61.892 C129.215,60.932 129.573,58.426 129.573,54.379 L129.725,29.888 C129.75,25.892 129.402,23.398 128.762,22.413 C128.264,21.645 127.142,21.174 125.403,21.006 C125.164,20.984 124.875,20.993 124.647,20.923 C124.158,20.768 123.8,20.307 123.8,19.766 C123.8,19.236 124.153,18.78 124.633,18.623 C124.702,18.6 124.775,18.584 124.846,18.575 L124.845,18.572 C125.711,18.424 126.957,18.273 128.493,18.236 C131.752,18.158 136.322,18.259 141.347,18.262 L141.347,18.262 Z M209.413,72.957 C209.413,74.95 209.134,77.021 211.34,77.582 C211.818,77.702 212.663,77.77 213.071,77.964 C213.491,78.164 213.773,78.592 213.77,79.083 C213.769,79.552 213.462,80.006 213.026,80.209 C212.719,80.351 212.272,80.377 211.944,80.426 C210.431,80.658 208.99,80.882 207.636,81.174 C205.7,81.592 203.657,81.946 201.736,82.417 C201.102,82.554 200.457,82.491 200.389,81.791 C200.376,81.061 200.343,80.095 200.344,79.607 C200.399,67.053 200.366,54.49 200.366,41.934 C200.366,39.942 200.644,37.869 198.44,37.31 C197.961,37.188 197.117,37.122 196.708,36.928 C196.288,36.727 196.006,36.3 196.009,35.809 C196.012,35.34 196.318,34.886 196.753,34.683 C197.059,34.54 197.508,34.515 197.836,34.466 C199.348,34.233 200.789,34.01 202.144,33.717 C204.08,33.3 206.123,32.945 208.045,32.475 C208.678,32.336 209.323,32.4 209.39,33.101 C209.402,33.83 209.424,34.793 209.435,35.285 C209.454,36.111 210.075,36.46 210.752,36.127 C212.155,35.272 213.476,34.292 214.907,33.56 C219.69,31.118 225.558,32.946 228.858,37.053 C231.034,39.763 231.963,43.127 232.339,46.958 C233.461,58.417 224.934,69.411 211.647,66.552 C209.748,66.209 209.397,67.075 209.396,67.836 C209.395,69.57 209.414,71.249 209.413,72.957 L209.413,72.957 Z M209.402,57.455 C209.432,59.105 209.66,60.886 210.98,61.6 C211.387,61.846 211.875,62.041 212.314,62.221 C213.523,62.714 214.62,62.961 215.607,62.961 C217.434,62.961 219.349,62.064 220.628,60.384 C222.358,58.116 223.852,54.685 223.852,50.096 C223.852,45.95 222.661,42.756 220.838,40.635 C219.357,38.911 217.173,38.162 215.003,38.162 C214.067,38.162 212.842,38.312 212.048,38.614 L212.048,38.616 L212.036,38.619 L212.034,38.62 L212.019,38.626 L212.005,38.631 L211.982,38.64 L211.978,38.642 L211.964,38.647 L211.958,38.65 L211.95,38.654 C211.688,38.763 211.441,38.907 211.211,39.081 C209.545,40.345 209.397,42.262 209.397,44.13 C209.397,48.584 209.405,53.008 209.402,57.455 L209.402,57.455 Z" id="Fill-2" fill="#FFFFFF"></path>
                        </g>
                    </g>
                </g>
            </g>
        </g>
    </g>
</svg>